<svg viewBox="0 0 489 436" fill="none" xmlns="http://www.w3.org/2000/svg"><path opacity="0.1" d="M256.83 341.004C384.866 341.004 488.66 264.668 488.66 170.502C488.66 76.3364 384.866 0 256.83 0C128.794 0 25 76.3364 25 170.502C25 264.668 128.794 341.004 256.83 341.004Z" fill="#544AFF"/><path opacity="0.1" d="M250.066 319.226C279.926 319.226 304.132 315.846 304.132 311.678C304.132 307.509 279.926 304.13 250.066 304.13C220.206 304.13 196 307.509 196 311.678C196 315.846 220.206 319.226 250.066 319.226Z" fill="#6C63FF"/><path d="M210.775 311.522H291.852C292.636 311.518 293.405 311.348 294.085 311.027C294.765 310.706 295.333 310.245 295.733 309.69C296.133 309.135 296.352 308.504 296.369 307.858C296.386 307.212 296.199 306.574 295.828 306.005L255.309 243.967C254.921 243.373 254.344 242.876 253.641 242.529C252.937 242.183 252.133 242 251.314 242C250.494 242 249.69 242.183 248.986 242.529C248.283 242.876 247.706 243.373 247.318 243.967L206.779 306.005C206.407 306.575 206.221 307.215 206.238 307.862C206.256 308.509 206.477 309.141 206.879 309.697C207.282 310.253 207.852 310.713 208.535 311.033C209.218 311.353 209.99 311.521 210.775 311.522V311.522ZM256.472 300.186H246.155V291.688H256.472V300.186ZM256.472 286.02H246.155V269.019H256.472V286.02Z" fill="#FF0000"/><path opacity="0.1" d="M210.775 311.522H291.852C292.636 311.518 293.405 311.348 294.085 311.027C294.765 310.706 295.333 310.245 295.733 309.69C296.133 309.135 296.352 308.504 296.369 307.858C296.386 307.212 296.199 306.574 295.828 306.005L255.309 243.967C254.921 243.373 254.344 242.876 253.641 242.529C252.937 242.183 252.133 242 251.314 242C250.494 242 249.69 242.183 248.986 242.529C248.283 242.876 247.706 243.373 247.318 243.967L206.779 306.005C206.407 306.575 206.221 307.215 206.238 307.862C206.256 308.509 206.477 309.141 206.879 309.697C207.282 310.253 207.852 310.713 208.535 311.033C209.218 311.353 209.99 311.521 210.775 311.522V311.522ZM256.472 300.186H246.155V291.688H256.472V300.186ZM256.472 286.02H246.155V269.019H256.472V286.02Z" fill="#DBFF00"/><path d="M210.775 313.57H291.852C292.636 313.566 293.405 313.396 294.085 313.075C294.765 312.754 295.333 312.293 295.733 311.738C296.133 311.183 296.352 310.552 296.369 309.906C296.386 309.26 296.199 308.622 295.828 308.053L255.309 246.015C254.921 245.42 254.344 244.923 253.641 244.577C252.937 244.231 252.133 244.048 251.314 244.048C250.494 244.048 249.69 244.231 248.986 244.577C248.283 244.923 247.706 245.42 247.318 246.015L206.779 308.053C206.407 308.623 206.221 309.263 206.238 309.91C206.256 310.557 206.477 311.189 206.879 311.745C207.282 312.301 207.852 312.761 208.535 313.081C209.218 313.401 209.99 313.569 210.775 313.57V313.57ZM256.472 302.233H246.155V293.735H256.472V302.233ZM256.472 288.067H246.155V271.067H256.472V288.067Z" fill="#FF0000"/><path opacity="0.1" d="M98.4801 435.151C145.689 435.151 183.96 430.263 183.96 424.233C183.96 418.202 145.689 413.314 98.4801 413.314C51.2708 413.314 13 418.202 13 424.233C13 430.263 51.2708 435.151 98.4801 435.151Z" fill="#6C63FF"/><path d="M36.3728 390.326C33.8397 394.387 32.6566 398.929 32.9438 403.488C33.231 408.048 34.9782 412.464 38.0079 416.287C39.0018 417.516 39.9163 418.401 40.6468 418.634C44.1505 419.769 51.1679 422.558 51.1679 422.558L68.0651 417.086C68.0651 417.086 70.8084 405.127 73.4026 394.86C75.1719 387.857 76.8815 381.644 77.5822 380.555C79.3316 377.872 77.5822 348.667 77.5822 348.667C77.5822 348.667 60.685 347.734 56.0382 358.468L54.0056 361.744L36.3728 390.326Z" fill="#A8A8A8"/><path opacity="0.1" d="M58.8064 393.554C69.0789 403.256 73.4126 394.864 73.4126 394.864C75.1818 387.861 76.8914 381.648 77.5922 380.559C79.3415 377.876 77.5922 348.671 77.5922 348.671C77.5922 348.671 60.6949 347.738 56.0482 358.472L54.0156 361.748C52.7135 370.336 51.4263 386.571 58.8064 393.554Z" fill="white"/><path d="M61.0627 420.596L120.7 414.92L131.34 357.223L123.294 342.237C119.895 335.856 115.188 330.004 109.379 324.938C105.328 321.42 100.433 318.037 95.2846 316.338C94.581 316.104 93.8626 315.902 93.1326 315.732C92.2935 315.522 91.406 315.478 90.5424 315.604C89.6788 315.73 88.8635 316.022 88.1629 316.457C80.8076 320.753 78.1786 339.018 77.3288 347.811C76.9791 351.425 76.3868 355.019 75.5545 358.578L61.0627 420.596Z" fill="#A8A8A8"/><path opacity="0.1" d="M100.766 356.6L88.3418 381.787C94.8522 377.864 104.499 356.498 104.499 356.498L113.141 380.858L106.253 355.183C107.261 349.608 107.554 343.96 107.128 338.335C106.581 331.888 99.2405 321.543 95.2547 316.334C94.5511 316.1 93.8328 315.898 93.1028 315.728C92.2637 315.518 91.3762 315.474 90.5126 315.6C89.649 315.726 88.8337 316.018 88.1331 316.452C91.264 321.633 99.0914 334.587 101.477 338.437C104.503 343.286 100.766 356.6 100.766 356.6Z" fill="white"/><path d="M110.91 422.558H143.268C144.599 422.558 145.916 422.335 147.139 421.903C148.363 421.47 149.466 420.837 150.383 420.043C151.301 419.248 152.012 418.307 152.474 417.279C152.937 416.25 153.141 415.155 153.073 414.059C152.357 402.625 150.543 382.238 146.23 369.296C143.899 362.313 141.19 358.648 138.705 356.842C137.54 355.915 136.036 355.332 134.427 355.183C133.206 355.096 131.984 355.341 130.948 355.879C124.939 360.626 117.922 385.604 117.922 385.604L110.91 422.558Z" fill="#A8A8A8"/><path opacity="0.1" d="M140.783 400.405C142.115 403.448 142.642 406.958 140.783 410.378L133.572 413.314C133.572 413.314 114.19 406.544 116.545 392.669C116.545 392.669 117.181 389.802 123.856 390.023C127.609 390.173 131.224 391.24 134.239 393.089C137.253 394.938 139.532 397.485 140.783 400.405V400.405Z" fill="white"/><path opacity="0.1" d="M133.08 363.931C132.856 359.066 136.062 357.378 138.71 356.842C137.545 355.915 136.041 355.332 134.431 355.183C132.588 356.455 131.281 358.175 130.699 360.098L123.94 387.247C123.94 387.247 133.457 372.085 133.08 363.931Z" fill="white"/><path d="M102.396 385.4L118.419 403.46L121.197 418.368L110.9 422.558L96.0549 425.261C94.6252 425.522 93.1551 425.601 91.6964 425.494L51.1877 422.558L56.6992 412.028L75.7335 390.007L102.396 385.4Z" fill="#A8A8A8"/><path opacity="0.1" d="M96.194 379.199C96.194 379.199 107.128 379.817 103.022 395.298C98.9174 410.779 56.6794 412.02 56.6794 412.02C56.6794 412.02 65.6548 398.914 79.4608 389.524C81.0114 388.471 82.5073 387.373 83.9336 386.202C87.1093 383.585 93.1823 378.986 96.194 379.199Z" fill="white"/><path opacity="0.1" d="M106.029 390.871C106.029 390.871 120.844 401.982 119.448 419.081Z" fill="black"/><path opacity="0.1" d="M130.953 355.879C130.953 355.879 115.407 372.917 113.663 399.132Z" fill="black"/><path opacity="0.1" d="M77.5971 348.659C77.5971 348.659 85.1214 376.815 66.3356 398.038Z" fill="black"/><path d="M129.198 263.461C129.144 264.317 129.661 265.1 129.964 265.919C130.465 267.501 130.415 269.167 129.82 270.727C129.263 272.365 128.329 274.097 129.039 275.699C129.203 276.075 129.452 276.419 129.601 276.796C130.217 278.352 129.074 279.991 127.822 281.264L132.737 284.102C133.454 284.593 134.308 284.929 135.222 285.081C136.141 285.171 137.21 284.766 137.398 284.021C137.463 283.767 137.398 283.5 137.458 283.242C137.519 282.909 137.675 282.592 137.915 282.318C138.154 282.045 138.47 281.822 138.835 281.67C139.573 281.371 140.396 281.245 141.215 281.305C144.232 281.44 146.796 283.075 149.54 284.123C151.348 284.768 153.223 285.281 155.141 285.655C156.229 285.888 157.437 286.101 158.421 285.655C159.405 285.208 159.857 284.172 159.782 283.234C159.63 282.301 159.276 281.399 158.739 280.568C158.196 279.739 157.87 278.825 157.779 277.886C157.779 276.509 158.694 275.256 159.002 273.905C159.434 271.984 158.555 270.03 157.481 268.286C156.408 266.541 155.106 264.862 154.584 262.962C154.48 262.386 154.299 261.821 154.042 261.278C153.794 260.866 153.457 260.495 153.048 260.181C151.204 258.678 148.575 257.965 146.001 257.81C143.427 257.654 140.828 258.002 138.273 258.367C137.299 258.481 136.339 258.669 135.406 258.928C134.072 259.364 132.806 259.929 131.633 260.611C130.471 261.274 129.273 262.245 129.198 263.461Z" fill="#464353"/><path opacity="0.1" d="M157.765 277.046C157.765 277.169 157.765 277.292 157.794 277.41C157.948 276.21 158.714 275.084 158.987 273.884C159.093 273.403 159.124 272.914 159.082 272.426C159.082 272.639 159.032 272.836 158.987 273.065C158.674 274.417 157.745 275.67 157.765 277.046Z" fill="black"/><path opacity="0.1" d="M130.297 267.557C130.355 266.728 130.243 265.897 129.964 265.1C129.669 264.478 129.429 263.84 129.243 263.191C129.243 263.277 129.203 263.359 129.198 263.445C129.144 264.301 129.66 265.083 129.964 265.902C130.156 266.441 130.267 266.996 130.297 267.557V267.557Z" fill="black"/><path opacity="0.1" d="M159.738 283.009C159.703 283.375 159.564 283.729 159.333 284.043C159.101 284.357 158.784 284.621 158.406 284.815C157.412 285.261 156.214 285.049 155.126 284.815C153.207 284.442 151.332 283.928 149.525 283.279C146.781 282.235 144.217 280.601 141.2 280.466C140.381 280.406 139.558 280.532 138.82 280.83C138.455 280.983 138.139 281.205 137.9 281.479C137.66 281.752 137.504 282.069 137.443 282.403C137.408 282.661 137.443 282.927 137.384 283.181C137.19 283.926 136.126 284.332 135.207 284.242C134.293 284.089 133.44 283.753 132.722 283.263L128.304 280.707C128.14 280.892 127.976 281.072 127.807 281.24L132.722 284.082C133.44 284.572 134.293 284.908 135.207 285.061C136.126 285.151 137.195 284.745 137.384 284C137.448 283.746 137.384 283.48 137.443 283.222C137.504 282.888 137.66 282.571 137.9 282.298C138.139 282.024 138.455 281.802 138.82 281.649C139.558 281.351 140.381 281.225 141.2 281.285C144.217 281.42 146.781 283.054 149.525 284.098C151.332 284.747 153.207 285.261 155.126 285.634C156.214 285.868 157.422 286.081 158.406 285.634C159.39 285.188 159.842 284.152 159.767 283.214C159.762 283.144 159.748 283.079 159.738 283.009Z" fill="black"/><path opacity="0.1" d="M129.601 276.776C129.662 276.94 129.707 277.109 129.735 277.279C129.812 276.836 129.766 276.384 129.601 275.957C129.452 275.58 129.203 275.236 129.039 274.859C128.92 274.586 128.843 274.301 128.811 274.011C128.737 274.574 128.815 275.143 129.039 275.678C129.203 276.055 129.452 276.403 129.601 276.776Z" fill="black"/><path d="M135.435 432.178C135.401 432.294 135.321 432.398 135.207 432.473C135.086 432.524 134.95 432.549 134.814 432.542C133.045 432.575 131.276 432.542 129.511 432.645C127.842 432.763 126.167 433.054 124.502 432.899C123.969 432.914 123.444 432.793 122.999 432.551C122.554 432.31 122.21 431.96 122.017 431.551C121.912 431.373 121.819 431.189 121.739 431.002C121.28 430.037 121.049 429.008 121.058 427.972C121.058 427.697 121.058 427.431 121.058 427.153C121.036 426.853 120.988 426.554 120.914 426.26C120.763 425.923 120.781 425.55 120.963 425.224C121.669 424.163 123.374 423.95 124.686 423.868C127.725 423.679 130.782 423.864 133.756 424.417C133.989 425.359 134.253 426.293 134.531 427.226C134.736 427.912 134.955 428.594 135.187 429.274C135.343 429.695 135.469 430.123 135.565 430.556C135.687 431.097 135.643 431.655 135.435 432.178Z" fill="#464353"/><path opacity="0.06" d="M135.435 432.178C135.401 432.294 135.321 432.398 135.207 432.473C135.086 432.524 134.95 432.548 134.814 432.542C133.045 432.575 131.276 432.542 129.511 432.645C127.842 432.763 126.167 433.054 124.502 432.899C123.969 432.914 123.444 432.793 122.999 432.551C122.554 432.31 122.21 431.96 122.017 431.551C121.912 431.373 121.819 431.189 121.739 431.002H122.375C124.467 431.002 126.564 430.941 128.657 430.941C129.288 430.941 129.924 430.916 130.55 430.855C131.176 430.794 131.688 430.708 132.26 430.65C133.115 430.583 133.975 430.554 134.834 430.564H135.54C135.669 431.101 135.633 431.656 135.435 432.178Z" fill="black"/><path d="M172.038 424.573C171.484 425.105 170.776 425.515 169.98 425.764C166.442 426.993 162.352 426.44 158.699 425.441C157.882 425.191 157.043 424.992 156.189 424.847C155.41 424.757 154.625 424.712 153.838 424.712C153.277 424.712 152.715 424.675 152.154 424.646C150.732 424.573 149.316 424.458 147.905 424.343C146.921 424.284 145.944 424.162 144.982 423.979C144.709 423.921 144.446 423.833 144.202 423.717V423.717C143.994 423.641 143.815 423.518 143.689 423.362C143.562 423.206 143.492 423.024 143.486 422.836C143.526 422.316 144.182 422.017 144.759 421.792C149.873 419.969 155.429 419.179 160.945 418.544C161.506 418.467 162.053 418.329 162.57 418.135C163.192 417.93 163.256 418.266 163.564 418.642C163.71 418.817 163.876 418.979 164.061 419.126C164.66 419.571 165.364 419.912 166.129 420.125C167.471 420.534 168.907 420.645 170.249 421.034C170.655 421.15 171.043 421.304 171.407 421.493C171.727 421.637 172.004 421.839 172.215 422.085C172.427 422.331 172.567 422.613 172.625 422.91C172.684 423.207 172.659 423.512 172.553 423.8C172.447 424.088 172.262 424.352 172.013 424.573H172.038Z" fill="#464353"/><path opacity="0.06" d="M172.038 424.573C171.484 425.106 170.776 425.515 169.98 425.764C166.442 426.993 162.352 426.44 158.699 425.441C157.882 425.191 157.043 424.992 156.189 424.847C155.41 424.757 154.625 424.712 153.838 424.712C153.277 424.712 152.715 424.675 152.154 424.646C152.611 424.29 153.078 423.942 153.555 423.606C153.901 423.34 154.299 423.124 154.733 422.967C155.273 422.821 155.849 422.789 156.408 422.873C159.251 423.196 161.805 424.839 164.673 424.695C166.009 424.569 167.301 424.225 168.474 423.684C169.429 423.363 170.28 422.864 170.959 422.226C171.164 422.006 171.321 421.758 171.421 421.493C171.742 421.637 172.019 421.839 172.23 422.085C172.442 422.331 172.582 422.613 172.64 422.91C172.699 423.207 172.674 423.512 172.568 423.8C172.462 424.088 172.277 424.352 172.028 424.573H172.038Z" fill="black"/><path d="M171.039 353.398C170.542 354.217 169.906 355.105 168.832 355.359C167.272 355.728 165.771 354.573 165.09 353.361C164.162 351.581 163.987 349.597 164.593 347.725C164.876 346.779 165.309 345.87 165.552 344.92C165.728 344.12 165.834 343.312 165.87 342.5C166.017 341.288 165.982 340.067 165.766 338.863C164.966 335.345 161.293 332.72 160.071 329.263C159.454 327.539 159.484 325.704 159.519 323.906C159.507 323.452 159.564 322.998 159.688 322.555C159.725 322.434 159.775 322.316 159.837 322.202C160.657 320.704 163.087 320.499 164.777 319.626C165.711 319.147 167.833 317.603 168.619 319.012C168.788 319.326 168.915 319.654 168.996 319.991C169.319 321.244 169.19 322.714 169.27 323.898C169.573 328.37 170.925 332.834 170.298 337.282C170.149 338.04 170.076 338.807 170.08 339.575C170.214 341.5 171.675 343.167 172.346 345.01C173.38 347.783 172.55 350.801 171.039 353.398Z" fill="#FBBEBE"/><path opacity="0.1" d="M169.021 319.999C168.652 319.889 168.247 319.889 167.878 319.999L164.514 320.818C163.335 321.077 162.185 321.421 161.079 321.846C160.597 322.041 160.139 322.276 159.713 322.547C159.75 322.426 159.8 322.308 159.862 322.194C160.682 320.695 163.112 320.491 164.802 319.618C165.736 319.139 167.858 317.595 168.643 319.004C168.814 319.323 168.941 319.657 169.021 319.999V319.999Z" fill="black"/><path d="M169.24 319.688C169.037 319.586 168.808 319.525 168.572 319.51C168.335 319.494 168.098 319.524 167.878 319.598L164.514 320.417C163.334 320.676 162.185 321.02 161.079 321.445C160.492 321.68 159.943 321.975 159.444 322.321C157.874 320.073 157.456 317.407 157.168 314.827C157.009 313.324 156.89 311.816 156.82 310.322C156.742 309.246 156.769 308.167 156.9 307.094C157.089 305.866 157.521 304.666 157.789 303.445C157.949 302.731 158.052 302.008 158.098 301.283C158.226 299.698 158.138 298.105 157.834 296.536C157.545 294.869 157.083 293.224 156.453 291.622C156.134 290.889 155.752 290.18 155.404 289.459L155.285 289.205C154.656 287.884 154.143 286.528 153.749 285.147C153.59 284.582 153.58 283.988 153.053 283.603C153.548 283.554 154.046 283.537 154.544 283.554C154.644 283.554 154.743 283.554 154.842 283.554C156.884 283.659 158.851 284.226 160.528 285.192C162.687 286.476 164.329 288.265 165.239 290.328C166.288 292.633 166.462 295.14 166.596 297.601C166.864 302.439 167.03 307.28 167.093 312.124C167.093 313.053 167.143 314.044 167.789 314.81C167.97 314.999 168.136 315.197 168.286 315.404C168.519 315.814 168.484 316.268 168.673 316.682C168.812 316.93 168.97 317.171 169.145 317.403C169.368 317.753 169.492 318.141 169.508 318.536C169.524 318.932 169.433 319.325 169.24 319.688Z" fill="#464353"/><path d="M136.161 271.615C135.664 271.48 135.167 271.337 134.67 271.206L135.704 271.271C135.876 271.367 136.03 271.483 136.161 271.615Z" fill="#FBBEBE"/><path d="M156.512 286.396C156.413 286.674 156.313 286.953 156.204 287.215C155.952 287.888 155.645 288.546 155.285 289.185C154.721 290.234 153.924 291.187 152.934 291.994C152.607 292.278 152.206 292.497 151.761 292.633C151.385 292.713 150.996 292.743 150.608 292.723C149.283 292.723 147.958 292.707 146.632 292.674C145.6 292.684 144.571 292.6 143.561 292.424C142.45 292.175 141.393 291.782 140.43 291.261C136.718 289.369 133.666 286.486 132.359 283.07C132.195 282.636 132.081 282.116 132.444 281.776C132.801 281.536 133.25 281.41 133.711 281.42H133.771C134.839 281.305 135.868 281.014 136.797 280.564C137.399 280.31 137.884 279.902 138.179 279.401C138.38 278.807 138.364 278.177 138.134 277.591L137.031 273.462C136.916 272.801 136.614 272.172 136.151 271.624C136.474 271.718 136.797 271.804 137.145 271.878C140.216 272.561 143.576 272.148 146.588 273.045C147.741 273.393 148.894 274.019 149.241 274.994C149.823 276.632 147.88 278.332 148.436 279.97C148.809 281.084 150.186 281.727 151.418 282.247L152.248 282.595L154.549 283.558L154.867 283.689L154.917 283.709C155.642 284.012 156.408 284.389 156.661 285.032C156.769 285.489 156.718 285.962 156.512 286.396V286.396Z" fill="#FBBEBE"/><path opacity="0.1" d="M162.575 296.012C162.491 297.059 162.181 298.085 161.661 299.043C160.663 300.699 160.128 302.518 160.095 304.367C159.713 309.896 157.163 316.477 160.816 321.121C160.905 321.236 160.995 321.351 161.079 321.469C160.492 321.705 159.943 321.999 159.444 322.346C157.874 320.097 157.456 317.431 157.168 314.851C157.009 313.348 156.89 311.841 156.82 310.346C156.742 309.27 156.769 308.191 156.9 307.119C157.089 305.89 157.521 304.69 157.789 303.47C157.949 302.755 158.052 302.033 158.098 301.307C158.226 299.722 158.138 298.13 157.834 296.561C157.545 294.893 157.083 293.249 156.453 291.646C156.134 290.913 155.752 290.205 155.404 289.484L155.285 289.23C154.721 290.279 153.924 291.232 152.934 292.039C152.607 292.323 152.206 292.542 151.761 292.678C151.385 292.758 150.996 292.788 150.608 292.768C149.283 292.768 147.958 292.752 146.632 292.719C145.6 292.729 144.571 292.645 143.561 292.469C142.45 292.22 141.393 291.827 140.43 291.306C136.718 289.414 133.666 286.531 132.359 283.115C132.195 282.681 132.081 282.161 132.444 281.821C132.801 281.581 133.25 281.455 133.711 281.465H133.771L138.243 286.023C138.756 286.506 139.191 287.041 139.535 287.616C139.602 287.809 139.741 287.98 139.933 288.104C140.089 288.162 140.259 288.188 140.43 288.177C144.629 288.177 150.225 288.177 154.425 288.177C154.439 287.564 154.223 286.962 153.809 286.453C153.679 286.478 153.505 286.486 153.774 286.42C153.531 285.091 153.01 283.806 152.233 282.624C152.187 282.543 152.135 282.463 152.079 282.386C151.745 281.981 151.497 281.533 151.344 281.06C151.874 280.92 152.443 280.92 152.974 281.06C153.585 281.277 153.903 281.821 154.171 282.325C154.4 282.735 154.629 283.173 154.832 283.603C154.832 283.648 154.882 283.697 154.902 283.742C155.335 284.589 155.613 285.485 155.727 286.4C155.757 286.736 155.856 287.162 156.194 287.272C156.247 287.292 156.305 287.303 156.363 287.305C156.713 287.2 157.093 287.182 157.455 287.255C157.817 287.328 158.144 287.488 158.396 287.715C158.885 288.176 159.226 288.731 159.39 289.328C159.551 289.926 159.788 290.508 160.095 291.065C160.736 292.072 159.757 292.523 160.915 293.141C161.457 293.387 161.923 293.731 162.277 294.149C162.605 294.73 162.709 295.38 162.575 296.012V296.012Z" fill="black"/><path opacity="0.1" d="M133.711 424.433C133.944 425.375 134.208 426.309 134.486 427.243L134.456 427.3C132.185 426.481 129.859 425.625 127.379 425.445C125.078 425.281 122.579 425.793 121.013 427.169C120.991 426.869 120.943 426.571 120.869 426.276C120.718 425.939 120.736 425.566 120.919 425.24C121.624 424.179 123.329 423.966 124.641 423.884C127.681 423.696 130.737 423.881 133.711 424.433Z" fill="black"/><path opacity="0.1" d="M153.287 287.203C153.52 287.203 153.436 287.203 153.322 287.235C153.207 287.268 153.018 287.268 153.287 287.203Z" fill="black"/><path opacity="0.1" d="M164.086 419.126C161.87 420.29 159.787 421.618 157.864 423.094C157.306 423.587 156.64 423.988 155.901 424.278C155.138 424.48 154.332 424.548 153.535 424.478C150.409 424.374 147.293 424.12 144.202 423.717V423.717C143.994 423.641 143.815 423.518 143.689 423.362C143.562 423.206 143.492 423.024 143.486 422.836C143.526 422.316 144.182 422.017 144.759 421.792C149.873 419.969 155.429 419.179 160.945 418.544C161.506 418.467 162.053 418.329 162.57 418.135C163.192 417.93 163.256 418.266 163.564 418.642C163.718 418.818 163.893 418.98 164.086 419.126V419.126Z" fill="black"/><path d="M127.623 282.452C128.353 282.988 129.188 283.423 129.929 283.943C131.917 285.331 133.169 287.272 134.402 289.164C133.671 289.382 132.88 289.426 132.121 289.291C131.73 291.108 131.796 292.972 132.314 294.767C131.32 295.329 130.548 296.12 130.093 297.04C129.74 297.974 129.497 298.934 129.367 299.907C128.652 304.169 127.933 308.431 127.21 312.693C127.196 313.11 127.022 313.513 126.713 313.844C126.575 313.935 126.449 314.038 126.336 314.151C126.184 314.426 126.124 314.73 126.162 315.031C126.132 315.33 125.893 315.687 125.531 315.646C125.354 315.611 125.198 315.527 125.088 315.408C124.725 315.091 124.393 314.752 124.094 314.392C121.162 319.028 119.751 324.025 118.2 329.095C117.092 332.707 115.984 336.36 115.929 340.087C115.944 341.85 116.078 343.612 116.332 345.362L116.769 348.958C117.122 351.849 117.475 354.745 117.857 357.636C118.106 359.471 118.354 361.322 119.154 363.051C120.347 365.676 119.025 368.637 119.532 371.413C119.93 373.588 120.72 375.837 119.925 377.933C119.607 378.773 119.05 379.539 118.633 380.35C117.609 382.365 117.504 384.605 117.415 386.788C117.254 388.701 117.341 390.623 117.673 392.521C118.101 394.483 119.06 396.404 118.871 398.386C118.608 401.208 116.083 403.62 115.775 406.438C115.531 408.686 116.729 410.857 118.016 412.851C118.966 414.322 117.644 416.222 117.142 417.84C116.148 421.009 117.803 424.327 119.83 427.14C119.882 427.237 119.974 427.315 120.089 427.361C120.322 427.431 120.531 427.243 120.685 427.083C122.211 425.469 124.914 424.859 127.394 425.035C129.874 425.211 132.195 426.055 134.471 426.891L137.697 420.973C138.243 419.969 138.8 418.884 138.527 417.807C138.333 417.037 137.731 416.386 137.304 415.681C136.31 414.019 136.26 412.081 136.25 410.218L136.191 399.693C138.705 397.088 140.241 393.992 141.21 390.756C142.697 395.307 142.799 400.09 141.508 404.681C141.27 405.375 141.103 406.085 141.011 406.802C140.818 409.722 143.596 412.192 144.336 415.051C144.408 415.269 144.428 415.497 144.396 415.722C144.313 415.999 144.173 416.262 143.983 416.5C142.651 418.491 142.796 420.903 142.989 423.172C146.475 423.672 149.996 423.982 153.53 424.102C154.327 424.167 155.132 424.099 155.896 423.901C156.635 423.61 157.301 423.207 157.859 422.713C160.115 420.964 162.593 419.42 165.249 418.106C163.766 416.078 161.69 414.388 159.211 413.191C160.011 412.221 161.835 412.298 162.898 411.52C163.432 411.085 163.781 410.519 163.892 409.907C164.29 408.301 163.798 406.63 163.306 405.054C162.352 401.949 161.392 398.833 159.827 395.9C159.119 394.695 158.495 393.458 157.958 392.194C156.656 388.664 157.566 384.822 156.582 381.214C156.264 380.059 155.752 378.867 156.11 377.716C156.656 375.943 159.091 374.891 159.628 373.113C161.552 366.786 161.894 360.229 162.988 353.77C163.232 352.537 163.364 351.289 163.38 350.039C163.38 348.733 163.097 347.439 162.983 346.136C162.536 340.923 164.558 335.722 164.041 330.512C163.71 327.302 162.427 324.208 160.304 321.502C156.651 316.854 159.201 310.277 159.583 304.748C159.612 302.899 160.146 301.079 161.144 299.424C161.669 298.467 161.98 297.44 162.063 296.393C162.217 295.747 162.119 295.078 161.785 294.48C161.435 294.061 160.971 293.716 160.428 293.473C159.27 292.85 160.249 292.4 159.608 291.392C159.3 290.835 159.063 290.253 158.903 289.656C158.74 289.059 158.398 288.506 157.909 288.046C157.657 287.82 157.33 287.66 156.968 287.587C156.606 287.514 156.226 287.531 155.876 287.637C155.404 287.637 155.275 287.121 155.235 286.732C155.101 285.307 154.385 283.967 153.684 282.657C153.416 282.153 153.098 281.608 152.487 281.391C151.954 281.254 151.384 281.254 150.852 281.391C151.005 281.866 151.256 282.316 151.592 282.722C152.454 283.968 153.027 285.334 153.282 286.752C152.785 286.875 153.779 286.752 153.282 286.752C153.727 287.263 153.956 287.881 153.933 288.509C149.738 288.509 144.142 288.509 139.943 288.509C139.772 288.52 139.601 288.495 139.446 288.435C139.254 288.311 139.114 288.141 139.043 287.948C138.702 287.373 138.267 286.838 137.751 286.359L132.831 281.358C132.722 281.228 132.577 281.12 132.409 281.043C132.206 280.996 131.991 280.996 131.788 281.043C130.192 281.236 129.014 281.784 127.623 282.452Z" fill="#6C63FF"/><path opacity="0.1" d="M145.28 350.207C146.129 350.198 146.965 350.376 147.701 350.723C148.066 350.9 148.369 351.153 148.58 351.456C148.791 351.759 148.902 352.102 148.903 352.451C148.849 353.226 148.128 353.84 147.606 354.499C147.283 354.901 147.026 355.336 146.841 355.793C146.784 355.897 146.77 356.014 146.801 356.125C146.861 356.281 147.065 356.359 147.239 356.428C147.871 356.664 148.411 357.04 148.798 357.515C149.185 357.989 149.404 358.543 149.43 359.115C149.386 360.712 147.492 362.006 147.596 363.62C147.644 363.956 147.713 364.289 147.805 364.619C148.032 365.994 147.801 367.395 147.134 368.669C146.533 369.955 145.713 371.164 145.067 372.437C143.322 375.898 142.945 379.731 143.079 383.495C143.183 386.051 142.085 388.483 141.091 390.916C141.653 386.016 141.802 381.09 141.538 376.172C141.469 374.837 141.265 373.576 141.339 372.237C141.459 370.111 142.9 368.178 143.268 366.093C143.476 364.902 143.337 363.689 143.372 362.485C143.442 360.028 144.252 357.604 144.306 355.138C144.376 353.398 144.182 351.604 145.28 350.207Z" fill="black"/><path d="M124.542 283.328C123.554 283.734 122.629 284.238 121.788 284.827C120.91 285.547 120.175 286.376 119.612 287.285C118.925 288.315 118.31 289.376 117.768 290.463C117.067 291.872 116.486 293.432 116.968 294.902C117.405 296.233 118.643 297.269 119.497 298.453C120.352 299.637 120.854 301.025 121.51 302.323C122.385 304.056 123.582 305.669 124.447 307.406C125.312 309.142 125.834 311.092 125.287 312.898C125.128 313.43 124.079 313.844 124.079 314.388C124.079 315.289 125.66 316.268 126.708 316.53C127.916 316.837 129.233 316.379 130.222 315.711C132.036 314.528 133.139 312.754 133.954 310.969C135.266 308.102 135.967 305.059 136.598 302.036C137.056 299.817 137.483 297.593 137.726 295.357C137.95 293.342 138.02 291.261 137.374 289.328C136.771 287.554 135.598 285.947 133.979 284.676C132.687 283.652 130.57 282.276 128.691 282.239C127.205 282.235 125.814 282.751 124.542 283.328Z" fill="#464353"/><path d="M138.671 332.699C138.617 332.979 138.49 333.246 138.298 333.481C138.107 333.717 137.856 333.915 137.562 334.063C136.976 334.357 136.337 334.572 135.669 334.702C134.337 335.021 132.926 335.316 131.579 335.034C130.52 334.75 129.543 334.291 128.706 333.686L113.658 324.193C112.449 323.487 111.337 322.674 110.343 321.768C109.772 321.184 109.248 320.57 108.773 319.93C108.144 319.197 107.651 318.391 107.311 317.538C107.19 317.162 107.13 316.775 107.132 316.387C107.128 316.02 107.238 315.657 107.451 315.334C107.813 314.835 108.589 314.732 109.225 314.593C111.36 314.138 113.576 314 115.77 314.184C115.963 314.176 116.153 314.22 116.313 314.31C116.472 314.399 116.592 314.529 116.655 314.679C116.988 315.183 117.276 315.707 117.574 316.231C118.032 317.125 118.628 317.966 119.348 318.734C120.042 319.355 120.781 319.942 121.56 320.491C123.15 321.719 124.452 323.194 126.147 324.324C128.11 325.63 130.495 326.413 132.732 327.375C134.968 328.337 137.175 329.587 138.298 331.45C138.559 331.83 138.687 332.263 138.671 332.699Z" fill="#FBBEBE"/><path opacity="0.1" d="M156.09 266.467C156.09 269.053 154.892 271.541 152.741 273.423C150.589 275.305 147.646 276.439 144.514 276.592C141.382 276.745 138.297 275.906 135.89 274.248C133.483 272.589 131.936 270.235 131.566 267.667C131.195 265.1 132.028 262.512 133.896 260.434C135.763 258.356 138.523 256.945 141.612 256.488C144.7 256.032 147.883 256.565 150.511 257.978C153.138 259.391 155.011 261.578 155.747 264.092C155.975 264.87 156.09 265.667 156.09 266.467V266.467Z" fill="black"/><path d="M156.09 266.058C156.09 268.644 154.892 271.132 152.741 273.014C150.589 274.896 147.646 276.029 144.514 276.182C141.382 276.335 138.297 275.497 135.89 273.838C133.483 272.179 131.936 269.825 131.566 267.258C131.195 264.69 132.028 262.103 133.896 260.025C135.763 257.947 138.523 256.535 141.612 256.079C144.7 255.622 147.883 256.155 150.511 257.568C153.138 258.982 155.011 261.169 155.747 263.682C155.975 264.46 156.09 265.258 156.09 266.058V266.058Z" fill="#FBBEBE"/><path opacity="0.1" d="M117.574 316.215C117.007 316.514 116.168 316.416 115.467 316.285C112.704 315.777 109.652 315.412 107.132 316.387C107.128 316.02 107.238 315.657 107.451 315.334C107.813 314.835 108.589 314.732 109.225 314.593C111.36 314.138 113.576 314 115.77 314.184C115.963 314.176 116.153 314.22 116.313 314.31C116.472 314.399 116.592 314.529 116.655 314.679C116.988 315.166 117.276 315.691 117.574 316.215Z" fill="black"/><path d="M112.381 302.426C111.769 304.064 111.267 305.747 110.07 307.135C109.674 307.5 109.376 307.93 109.195 308.397C109.181 308.741 109.113 309.083 108.991 309.412C108.822 309.691 108.464 309.875 108.32 310.162C108.107 310.571 108.385 311.1 108.102 311.485C107.969 311.639 107.81 311.777 107.629 311.894C106.954 312.41 106.785 313.233 106.77 313.995C106.755 314.757 106.844 315.535 106.541 316.252C109.165 314.962 112.505 315.347 115.487 315.895C116.317 316.047 117.345 316.162 117.882 315.613C118.419 315.064 118.111 314.343 118.185 313.684C118.285 312.824 119 312.111 119.443 311.329C119.94 310.449 120.109 309.466 120.491 308.548C121.281 306.619 122.976 305.047 124.065 303.224C124.467 302.597 124.708 301.908 124.77 301.201C124.733 300.284 124.442 299.386 123.92 298.576C122.886 296.688 121.656 294.878 120.243 293.166C119.612 292.4 118.523 290.983 117.544 292.207C116.749 293.194 116.252 294.452 115.666 295.533C114.402 297.773 113.305 300.075 112.381 302.426Z" fill="#464353"/><path d="M157.223 286.527C155.731 286.612 154.234 286.421 152.843 285.968C151.452 285.515 150.201 284.812 149.182 283.91C149.01 283.781 148.886 283.615 148.824 283.431C148.796 283.191 148.877 282.952 149.053 282.759C149.649 282.001 150.678 281.502 151.155 280.687C151.632 279.872 151.468 278.934 151.513 278.041C151.592 276.44 152.357 274.855 152.422 273.278C152.445 272.875 152.408 272.47 152.313 272.074C152.084 271.486 151.944 270.876 151.895 270.26C151.96 269.06 153.272 268.126 153.491 266.942C153.774 265.435 152.258 264.125 150.732 263.257C149.569 262.592 148.306 262.053 146.975 261.655C146.158 261.414 145.311 261.245 144.451 261.152C142.846 260.973 141.212 261.123 139.694 261.59C139.066 261.785 138.472 262.047 137.925 262.368C137.6 262.538 137.329 262.769 137.135 263.044C136.976 263.353 136.904 263.687 136.926 264.022C136.896 265.697 137.125 267.479 136.156 268.937C135.659 269.719 134.814 270.354 134.402 271.181C134.233 271.525 134.127 271.889 134.089 272.258C134.039 272.642 134.014 273.028 134.014 273.413C133.984 275.572 134.014 277.849 135.346 279.72C135.816 280.286 136.242 280.876 136.623 281.485C136.808 281.794 136.893 282.136 136.871 282.48C136.85 282.823 136.721 283.156 136.499 283.447C136.23 283.713 135.89 283.923 135.505 284.062C134.518 284.452 133.444 284.67 132.351 284.702C131.257 284.735 130.167 284.581 129.149 284.25C130.339 283.32 131.157 282.113 131.493 280.79C131.829 279.466 131.666 278.09 131.027 276.845C130.668 276.342 130.435 275.785 130.341 275.207C130.391 274.686 130.56 274.178 130.838 273.708C131.52 272.169 131.625 270.497 131.141 268.908C130.838 267.934 130.312 266.992 130.217 265.988C130.138 265.231 130.178 264.468 130.336 263.719C130.609 262.379 131.325 261.128 132.406 260.102C133.488 259.077 134.892 258.317 136.464 257.908C136.718 257.838 136.961 257.773 137.239 257.715C138.445 257.495 139.677 257.386 140.912 257.392C143.67 257.318 146.468 257.253 149.127 257.846C150.688 258.183 152.14 258.798 153.381 259.648C154.262 260.259 154.965 261.024 155.439 261.889C155.697 262.387 155.892 262.905 156.02 263.437C156.134 263.875 156.219 264.317 156.303 264.76C156.905 267.909 157.506 271.12 156.865 274.265C156.612 275.494 156.169 276.722 155.97 277.976C155.488 280.863 156.358 283.734 157.223 286.527Z" fill="#464353"/><path d="M139.565 290.573C140.076 290.573 140.49 290.232 140.49 289.812C140.49 289.391 140.076 289.05 139.565 289.05C139.055 289.05 138.641 289.391 138.641 289.812C138.641 290.232 139.055 290.573 139.565 290.573Z" fill="white"/><path d="M155.165 290.213C155.676 290.213 156.09 289.872 156.09 289.451C156.09 289.03 155.676 288.689 155.165 288.689C154.655 288.689 154.241 289.03 154.241 289.451C154.241 289.872 154.655 290.213 155.165 290.213Z" fill="white"/><path opacity="0.1" d="M139.565 251.314L137.577 248.222C137.703 248.098 137.841 247.983 137.99 247.878C138.277 247.732 138.613 247.666 138.949 247.69L139.565 251.314Z" fill="black"/><path opacity="0.1" d="M145.047 247.546L142.796 250.29L141.513 247.28C142.061 247.086 142.653 246.994 143.248 247.01C143.88 247.105 144.488 247.286 145.047 247.546V247.546Z" fill="black"/><path opacity="0.1" d="M136.499 282.636C136.23 282.902 135.89 283.112 135.505 283.251C133.743 283.945 131.732 284.084 129.854 283.64C129.636 283.858 129.4 284.065 129.149 284.258C130.167 284.589 131.257 284.743 132.351 284.71C133.444 284.678 134.518 284.46 135.505 284.07C135.89 283.931 136.23 283.721 136.499 283.455C136.67 283.251 136.787 283.019 136.841 282.775C136.896 282.531 136.888 282.28 136.817 282.038C136.767 282.255 136.659 282.459 136.499 282.636Z" fill="black"/><path opacity="0.1" d="M131.107 268.921C131.269 269.457 131.364 270.006 131.39 270.559C131.447 269.733 131.352 268.904 131.107 268.102C130.804 267.127 130.277 266.185 130.182 265.181C130.182 265.054 130.182 264.928 130.157 264.796C130.134 265.198 130.142 265.6 130.182 266.001C130.277 267.004 130.804 267.946 131.107 268.921Z" fill="black"/><path opacity="0.1" d="M156.83 274.277C157.041 273.194 157.131 272.098 157.099 271.001C157.081 271.824 156.992 272.646 156.83 273.458C156.577 274.687 156.134 275.916 155.936 277.169C155.833 277.841 155.795 278.519 155.821 279.196C155.835 278.792 155.873 278.389 155.936 277.988C156.134 276.735 156.577 275.518 156.83 274.277Z" fill="black"/><path opacity="0.1" d="M131.007 276.034C130.747 275.631 130.537 275.207 130.381 274.769C130.339 274.917 130.319 275.068 130.321 275.219C130.415 275.798 130.648 276.355 131.007 276.858C131.372 277.544 131.583 278.28 131.628 279.028C131.718 278.004 131.505 276.976 131.007 276.034V276.034Z" fill="black"/><path opacity="0.1" d="M152.313 272.058C152.356 272.245 152.388 272.433 152.407 272.623C152.407 272.561 152.407 272.504 152.407 272.443C152.43 272.039 152.393 271.635 152.298 271.239C152.188 270.809 152.01 270.383 151.925 269.949C151.9 270.046 151.885 270.144 151.88 270.243C151.934 270.86 152.079 271.47 152.313 272.058V272.058Z" fill="black"/><path opacity="0.1" d="M149.182 283.075C149.105 283.009 149.034 282.939 148.968 282.866C148.846 283.03 148.795 283.223 148.824 283.414C148.886 283.599 149.01 283.765 149.182 283.894C150.201 284.796 151.452 285.499 152.843 285.952C154.234 286.404 155.731 286.595 157.223 286.511C157.138 286.24 157.054 285.974 156.974 285.692C155.523 285.747 154.074 285.541 152.729 285.089C151.383 284.637 150.173 283.95 149.182 283.075V283.075Z" fill="black"/><path opacity="0.1" d="M153.481 266.164C153.478 266.149 153.478 266.134 153.481 266.119C153.764 264.612 152.248 263.302 150.722 262.433C149.559 261.768 148.296 261.23 146.965 260.832C146.148 260.591 145.301 260.422 144.441 260.328C142.836 260.15 141.202 260.3 139.685 260.767C139.056 260.962 138.462 261.223 137.915 261.545C137.59 261.714 137.319 261.946 137.125 262.22C136.966 262.529 136.894 262.864 136.916 263.199C136.916 263.482 136.916 263.764 136.916 264.051V264.018C136.894 263.683 136.966 263.348 137.125 263.04C137.319 262.765 137.59 262.533 137.915 262.364C138.462 262.042 139.056 261.781 139.685 261.586C141.202 261.119 142.836 260.969 144.441 261.147C145.301 261.241 146.148 261.41 146.965 261.651C148.296 262.049 149.559 262.588 150.722 263.252C151.99 263.957 153.237 264.973 153.481 266.164Z" fill="black"/><path opacity="0.1" d="M136.156 268.126C135.659 268.908 134.814 269.543 134.402 270.37C134.233 270.715 134.127 271.078 134.089 271.447C134.039 271.831 134.014 272.217 134.014 272.602C134.014 272.951 134.014 273.303 134.014 273.655C134.014 273.577 134.014 273.499 134.014 273.421C134.014 273.036 134.039 272.65 134.089 272.267C134.127 271.897 134.233 271.534 134.402 271.189C134.814 270.37 135.639 269.727 136.156 268.945C136.956 267.717 136.941 266.304 136.926 264.899C136.992 266.01 136.728 267.118 136.156 268.126V268.126Z" fill="black"/><path opacity="0.1" d="M155.985 263.465C155.917 263.546 155.837 263.619 155.747 263.682C155.571 263.801 155.375 263.898 155.165 263.969C153.719 264.485 153.779 262.802 153.023 262.225C152.539 261.93 151.944 261.785 151.344 261.815C149.889 261.755 148.433 261.702 146.975 261.655C144.545 261.582 142.12 261.545 139.694 261.59C138.532 261.606 137.372 261.646 136.216 261.708C134.874 261.782 133.433 261.926 132.289 262.45C131.898 262.627 131.544 262.855 131.241 263.126C130.968 263.371 130.679 263.682 130.302 263.74C130.574 262.4 131.29 261.148 132.372 260.123C133.453 259.097 134.857 258.338 136.429 257.928C138.974 256.366 142.154 255.675 145.303 255.999C148.451 256.324 151.326 257.639 153.327 259.669C154.207 260.279 154.911 261.045 155.384 261.909C155.65 262.409 155.852 262.931 155.985 263.465V263.465Z" fill="black"/><path d="M155.165 263.15C153.719 263.666 153.779 261.983 153.023 261.405C152.539 261.111 151.944 260.966 151.344 260.996C146.308 260.723 141.257 260.687 136.216 260.889C134.422 260.988 132.453 261.209 131.246 262.306C130.938 262.585 130.615 262.945 130.152 262.933C129.998 262.114 129.889 261.262 129.815 260.423C129.769 260.108 129.79 259.789 129.874 259.481C129.998 259.128 130.282 258.829 130.426 258.485C130.568 258.048 130.618 257.594 130.575 257.142C130.597 255.471 131.142 253.833 132.157 252.387C133.172 250.94 134.623 249.734 136.37 248.886C136.808 248.709 137.215 248.483 137.577 248.214C137.703 248.09 137.841 247.975 137.99 247.87C138.277 247.724 138.613 247.658 138.949 247.682C139.188 247.682 139.446 247.682 139.655 247.682C140.297 247.623 140.926 247.485 141.518 247.272C142.066 247.078 142.658 246.986 143.253 247.002C143.885 247.097 144.493 247.278 145.052 247.538C145.321 247.645 145.602 247.729 145.892 247.788C146.344 247.874 146.811 247.87 147.263 247.944C147.996 248.097 148.692 248.352 149.321 248.697C150.072 249.031 150.767 249.444 151.388 249.926C152.064 250.562 152.605 251.288 152.989 252.072C153.647 253.155 154.147 254.299 154.48 255.479C154.882 257.175 154.683 259.01 155.638 260.549C156.219 261.516 156.751 262.589 155.165 263.15Z" fill="#FED253"/><path opacity="0.1" d="M129.974 261.864C129.974 261.864 140.276 254.14 155.618 260.545C155.618 260.545 138.298 257.298 129.974 261.864Z" fill="black"/><path d="M17.7163 301.332C16.3149 299.44 14.2077 297.708 14.5357 295.562C18.3922 295.926 22.05 295.152 25.5835 293.805C29.117 292.457 32.397 290.708 35.7069 288.992C37.009 288.317 38.3061 287.653 39.5982 287.039C41.6458 286.072 43.6784 284.991 45.7608 284.045C48.7426 282.694 51.7841 281.588 55.1338 281.375C55.7405 281.336 56.3493 281.324 56.9577 281.338C61.0826 281.404 65.3566 282.317 68.9845 280.793L69.2082 280.695C71.2656 279.765 72.7616 278.185 74.5258 276.903C75.7942 275.999 77.1752 275.208 78.6458 274.544C81.3245 273.315 84.2268 272.332 86.9652 271.173C87.6661 270.876 88.3317 270.525 88.9531 270.125L89.4202 269.817L89.5246 269.744C89.6389 269.666 89.7532 269.588 89.8625 269.506L90.0762 269.351L90.2949 269.187L90.4639 269.056L90.7372 268.843L90.767 268.814L91.1994 268.462L91.3734 268.319L91.6765 268.061L91.8554 267.913C92.1586 267.655 92.4617 267.393 92.7699 267.139C93.078 266.885 93.4955 266.541 93.8682 266.259L94.226 265.996L94.3304 265.923L94.6186 265.726L94.7528 265.632L95.0361 265.452L95.1752 265.362C95.3144 265.276 95.4585 265.194 95.6026 265.112C95.7353 265.036 95.8748 264.969 96.0201 264.911L95.0908 263.056L97.7645 262.147L134.64 335.885L131.962 336.795L110.87 294.611L110.721 294.734C105.835 298.707 99.8499 301.642 93.2818 303.286H93.242C89.5693 304.199 85.4593 304.846 82.3681 306.541C81.272 307.129 80.3195 307.88 79.5602 308.757C78.8346 309.609 78.3277 310.58 77.5723 311.399C77.4282 311.55 77.2691 311.698 77.1101 311.837C76.2063 312.575 75.2063 313.229 74.1282 313.786L73.6561 314.053C70.4541 315.909 67.1183 317.604 63.6669 319.127C61.6752 319.981 59.5985 320.694 57.4596 321.256C55.9041 321.666 54.2988 321.965 52.7433 322.37C51.6969 322.631 50.6808 322.969 49.7068 323.378C47.0728 324.512 45.0501 326.29 43.1367 328.186C41.4619 329.849 39.8716 331.61 38.0328 333.125C36.8798 334.067 35.1254 334.96 33.7339 334.407L33.4506 334.272C33.4954 334.21 33.5302 334.149 33.5699 334.083C34.6682 332.187 33.3165 329.845 31.4975 328.325C31.3087 328.165 31.1148 328.01 30.9161 327.862C30.7173 327.715 30.3594 327.453 30.0762 327.248C28.5206 326.146 26.8657 325.123 25.7872 323.701C24.9641 322.508 24.4054 321.203 24.1373 319.848C23.6403 317.919 23.3073 315.932 22.0351 314.29C21.2001 313.205 19.9577 312.279 19.0532 311.239C18.4814 310.623 18.1056 309.9 17.9598 309.134C17.7561 307.803 18.5065 306.5 18.7898 305.174C18.8741 304.812 18.9091 304.444 18.8942 304.076C18.7903 303.094 18.385 302.15 17.7163 301.332V301.332Z" fill="url(#paint0_linear)"/><path d="M131.024 336.162L133.657 335.267L97.3958 262.769L94.763 263.663L131.024 336.162Z" fill="#D6D8E1"/><path d="M22.9246 314.032C24.1721 315.65 24.505 317.599 24.9871 319.495C25.2545 320.828 25.8046 322.112 26.6122 323.288C27.6758 324.684 29.3009 325.692 30.8266 326.773C31.1049 326.974 31.3832 327.183 31.6516 327.379C31.8454 327.523 32.0392 327.678 32.2231 327.83C34.0122 329.325 35.3391 331.63 34.2607 333.494C34.2276 333.557 34.1894 333.619 34.1464 333.678C34.2337 333.727 34.325 333.771 34.4197 333.809C35.7914 334.358 37.5159 333.481 38.649 332.552C40.458 331.061 42.0235 329.333 43.6685 327.699C45.5471 325.831 47.5399 324.082 50.1292 322.968C51.085 322.565 52.083 322.233 53.1111 321.977C54.6368 321.568 56.2172 321.277 57.7479 320.884C59.8503 320.33 61.8919 319.63 63.8507 318.791C67.2498 317.292 70.5359 315.625 73.6909 313.799L74.1581 313.537C75.2175 312.989 76.2008 312.348 77.0902 311.624C77.2493 311.485 77.4033 311.341 77.5474 311.19C78.3128 310.371 78.8147 309.433 79.5353 308.593C80.2827 307.731 81.22 306.992 82.2986 306.415C85.3401 304.748 89.3755 304.109 92.9885 303.212H93.0283C99.4847 301.593 105.368 298.708 110.174 294.804C110.572 294.53 110.87 294.17 111.034 293.764C111.188 293.186 110.81 292.613 110.447 292.105C110.025 291.507 109.612 290.909 109.205 290.303C107.372 287.554 105.736 284.719 104.305 281.813C103.992 281.174 103.688 280.539 103.395 279.896C102.643 278.258 101.957 276.597 101.338 274.912C101.134 274.355 100.935 273.794 100.746 273.233C100.712 273.127 100.672 273.012 100.637 272.889C99.812 270.157 98.7087 263.764 95.3094 265.677C94.2984 266.273 93.3583 266.946 92.5015 267.688C91.8405 268.241 91.1944 268.81 90.5136 269.359C89.959 269.808 89.3733 270.231 88.7593 270.624C88.1361 271.018 87.4707 271.363 86.7713 271.656C84.0728 272.795 81.2201 273.749 78.5911 274.97C77.1434 275.622 75.7839 276.399 74.5358 277.288C72.8013 278.549 71.3303 280.105 69.3076 281.019L69.0889 281.117C65.5206 282.612 61.3211 281.715 57.2608 281.649C56.6641 281.637 56.067 281.649 55.4717 281.686C52.1767 281.891 49.1651 282.98 46.2528 284.311C44.2052 285.245 42.2074 286.302 40.1946 287.256C38.9224 287.858 37.6501 288.509 36.3679 289.177C33.1177 290.864 29.8227 292.633 26.4283 293.911C22.9495 295.213 19.3564 295.992 15.5644 295.635C15.2414 297.744 17.3088 299.448 18.6904 301.307C19.354 302.107 19.7562 303.033 19.8583 303.998C19.8766 304.359 19.8449 304.72 19.7639 305.075C19.4856 306.382 18.7699 307.66 18.9488 308.974C19.0899 309.724 19.4573 310.432 20.0173 311.034C20.8821 312.054 22.0997 312.967 22.9246 314.032Z" fill="#F86D70"/><path d="M123.965 322.563C123.965 322.563 128.319 325.692 132.732 327.359C137.145 329.026 134.223 335.005 134.223 335.005C134.223 335.005 129.546 335.89 126.271 332.138C122.996 328.387 123.965 322.563 123.965 322.563Z" fill="#FBBEBE"/><path opacity="0.1" d="M262.689 61.0363H259.568C260.148 61.0363 260.704 60.8465 261.114 60.5085C261.524 60.1706 261.755 59.7122 261.755 59.2343C261.755 58.7564 261.524 58.298 261.114 57.9601C260.704 57.6222 260.148 57.4323 259.568 57.4323H234.282C233.702 57.4323 233.145 57.6222 232.735 57.9601C232.325 58.298 232.095 58.7564 232.095 59.2343C232.095 59.7122 232.325 60.1706 232.735 60.5085C233.145 60.8465 233.702 61.0363 234.282 61.0363H237.403C236.841 61.0584 236.312 61.2577 235.924 61.5928C235.536 61.9279 235.32 62.3732 235.32 62.8363C235.32 63.2993 235.536 63.7446 235.924 64.0797C236.312 64.4149 236.841 64.6142 237.403 64.6362H233.034C232.454 64.6362 231.898 64.8261 231.488 65.164C231.078 65.502 230.848 65.9603 230.848 66.4382C230.848 66.9161 231.078 67.3745 231.488 67.7124C231.898 68.0504 232.454 68.2402 233.034 68.2402H258.32C258.9 68.2402 259.457 68.0504 259.867 67.7124C260.277 67.3745 260.507 66.9161 260.507 66.4382C260.507 65.9603 260.277 65.502 259.867 65.164C259.457 64.8261 258.9 64.6362 258.32 64.6362H262.689C262.984 64.6479 263.28 64.6099 263.557 64.5247C263.834 64.4395 264.088 64.3088 264.302 64.1405C264.516 63.9722 264.687 63.7698 264.803 63.5457C264.92 63.3215 264.98 63.0801 264.98 62.8363C264.98 62.5924 264.92 62.3511 264.803 62.1269C264.687 61.9027 264.516 61.7003 264.302 61.5321C264.088 61.3638 263.834 61.2331 263.557 61.1479C263.28 61.0626 262.984 61.0247 262.689 61.0363V61.0363Z" fill="#6C63FF"/><path opacity="0.1" d="M363.866 95.602H360.745C361.306 95.5799 361.836 95.3806 362.224 95.0455C362.611 94.7103 362.828 94.2651 362.828 93.802C362.828 93.339 362.611 92.8937 362.224 92.5585C361.836 92.2234 361.306 92.0241 360.745 92.002H335.434C335.139 91.9904 334.843 92.0284 334.566 92.1136C334.289 92.1988 334.035 92.3295 333.821 92.4978C333.607 92.6661 333.436 92.8684 333.32 93.0926C333.203 93.3168 333.143 93.5581 333.143 93.802C333.143 94.0459 333.203 94.2872 333.32 94.5114C333.436 94.7356 333.607 94.9379 333.821 95.1062C334.035 95.2745 334.289 95.4052 334.566 95.4904C334.843 95.5756 335.139 95.6136 335.434 95.602H338.555C337.994 95.624 337.464 95.8233 337.077 96.1584C336.689 96.4936 336.473 96.9389 336.473 97.4019C336.473 97.865 336.689 98.3102 337.077 98.6454C337.464 98.9805 337.994 99.1798 338.555 99.2019H334.187C333.607 99.2019 333.051 99.3917 332.64 99.7297C332.23 100.068 332 100.526 332 101.004C332 101.482 332.23 101.94 332.64 102.278C333.051 102.616 333.607 102.806 334.187 102.806H359.468C360.048 102.806 360.604 102.616 361.014 102.278C361.424 101.94 361.655 101.482 361.655 101.004C361.655 100.526 361.424 100.068 361.014 99.7297C360.604 99.3917 360.048 99.2019 359.468 99.2019H363.866C364.162 99.2135 364.457 99.1755 364.734 99.0903C365.012 99.0051 365.265 98.8744 365.479 98.7061C365.694 98.5378 365.864 98.3355 365.981 98.1113C366.097 97.8871 366.157 97.6458 366.157 97.4019C366.157 97.158 366.097 96.9167 365.981 96.6925C365.864 96.4683 365.694 96.266 365.479 96.0977C365.265 95.9294 365.012 95.7987 364.734 95.7135C364.457 95.6283 364.162 95.5903 363.866 95.602V95.602Z" fill="#6C63FF"/><path opacity="0.1" d="M215.372 112.709H212.251C212.546 112.72 212.842 112.682 213.119 112.597C213.396 112.512 213.65 112.381 213.864 112.213C214.078 112.045 214.248 111.842 214.365 111.618C214.481 111.394 214.542 111.153 214.542 110.909C214.542 110.665 214.481 110.424 214.365 110.199C214.248 109.975 214.078 109.773 213.864 109.605C213.65 109.436 213.396 109.306 213.119 109.22C212.842 109.135 212.546 109.097 212.251 109.109H186.959C186.664 109.097 186.368 109.135 186.091 109.22C185.814 109.306 185.56 109.436 185.346 109.605C185.132 109.773 184.962 109.975 184.845 110.199C184.729 110.424 184.668 110.665 184.668 110.909C184.668 111.153 184.729 111.394 184.845 111.618C184.962 111.842 185.132 112.045 185.346 112.213C185.56 112.381 185.814 112.512 186.091 112.597C186.368 112.682 186.664 112.72 186.959 112.709H190.08C189.785 112.697 189.489 112.735 189.212 112.82C188.935 112.905 188.681 113.036 188.467 113.204C188.253 113.373 188.083 113.575 187.966 113.799C187.85 114.023 187.79 114.265 187.79 114.509C187.79 114.753 187.85 114.994 187.966 115.218C188.083 115.442 188.253 115.645 188.467 115.813C188.681 115.981 188.935 116.112 189.212 116.197C189.489 116.282 189.785 116.32 190.08 116.309H185.707C185.127 116.309 184.571 116.498 184.161 116.836C183.751 117.174 183.52 117.633 183.52 118.111C183.52 118.589 183.751 119.047 184.161 119.385C184.571 119.723 185.127 119.913 185.707 119.913H210.993C211.573 119.913 212.129 119.723 212.54 119.385C212.95 119.047 213.18 118.589 213.18 118.111C213.18 117.633 212.95 117.174 212.54 116.836C212.129 116.498 211.573 116.309 210.993 116.309H215.362C215.657 116.32 215.953 116.282 216.23 116.197C216.507 116.112 216.761 115.981 216.975 115.813C217.189 115.645 217.36 115.442 217.476 115.218C217.593 114.994 217.653 114.753 217.653 114.509C217.653 114.265 217.593 114.023 217.476 113.799C217.36 113.575 217.189 113.373 216.975 113.204C216.761 113.036 216.507 112.905 216.23 112.82C215.953 112.735 215.657 112.697 215.362 112.709H215.372Z" fill="#6C63FF"/><path d="M257.453 236C337.987 236 403.273 231.932 403.273 226.914C403.273 221.897 337.987 217.829 257.453 217.829C176.919 217.829 111.633 221.897 111.633 226.914C111.633 231.932 176.919 236 257.453 236Z" fill="#F2F2F2"/><path d="M251.864 127.451C228.106 127.451 211.048 141.797 211.048 175.27C211.048 213.206 228.106 223.248 251.864 223.248C275.622 223.248 293.696 212.25 293.696 175.27C293.696 135.74 275.622 127.451 251.864 127.451ZM252.02 210.656C235.565 210.656 226.968 201.57 226.968 175.294C226.968 152.11 235.917 139.884 252.372 139.884C268.828 139.884 277.776 147.915 277.776 175.294C277.776 200.908 268.476 210.656 252.02 210.656Z" fill="#2F2E41"/><path d="M196.822 196.789H186.999V169.564C186.999 168.118 186.389 166.732 185.302 165.709C184.216 164.687 182.742 164.112 181.206 164.112H178.904C178.144 164.112 177.39 164.253 176.687 164.527C175.985 164.801 175.346 165.203 174.808 165.709C174.27 166.215 173.843 166.816 173.552 167.478C173.261 168.139 173.111 168.848 173.111 169.564V196.789H145.404C144.834 196.789 144.274 196.65 143.778 196.386C143.281 196.122 142.866 195.742 142.572 195.283C142.277 194.823 142.114 194.3 142.098 193.764C142.082 193.227 142.214 192.696 142.48 192.222L171.805 139.985C172.171 139.333 172.392 138.619 172.456 137.885C172.521 137.151 172.426 136.412 172.179 135.714C171.931 135.015 171.536 134.37 171.016 133.819C170.497 133.268 169.864 132.822 169.157 132.508L167.426 131.738C166.081 131.141 164.545 131.053 163.133 131.492C161.722 131.931 160.544 132.864 159.843 134.098L124.078 197.068C123.468 198.14 123.15 199.337 123.15 200.553V200.553C123.15 201.524 123.353 202.485 123.748 203.382C124.143 204.279 124.721 205.094 125.451 205.781C126.18 206.467 127.046 207.012 127.999 207.383C128.952 207.755 129.973 207.946 131.005 207.946H173.111V225.161C173.111 226.019 173.291 226.869 173.64 227.662C173.989 228.455 174.5 229.175 175.145 229.782C175.79 230.389 176.555 230.87 177.398 231.199C178.24 231.527 179.143 231.696 180.055 231.696H180.055C180.967 231.696 181.87 231.527 182.712 231.199C183.555 230.87 184.32 230.389 184.965 229.782C185.61 229.175 186.121 228.455 186.47 227.662C186.819 226.869 186.999 226.019 186.999 225.161V207.946H196.822C198.394 207.946 199.902 207.358 201.013 206.312C202.125 205.266 202.749 203.847 202.749 202.367V202.367C202.749 200.888 202.125 199.469 201.013 198.423C199.902 197.376 198.394 196.789 196.822 196.789V196.789Z" fill="#6C63FF"/><path d="M378.715 196.789H368.892V169.564C368.892 168.118 368.282 166.732 367.196 165.709C366.109 164.687 364.636 164.112 363.099 164.112H360.798C360.037 164.112 359.284 164.253 358.581 164.527C357.878 164.801 357.239 165.203 356.702 165.709C356.164 166.215 355.737 166.816 355.446 167.478C355.155 168.139 355.005 168.848 355.005 169.564V196.789H327.298C326.728 196.789 326.167 196.65 325.671 196.386C325.175 196.122 324.759 195.742 324.465 195.283C324.171 194.823 324.008 194.3 323.992 193.764C323.976 193.227 324.107 192.696 324.374 192.222L353.699 139.985C354.064 139.334 354.286 138.619 354.35 137.885C354.414 137.151 354.32 136.412 354.072 135.714C353.825 135.015 353.429 134.37 352.91 133.819C352.391 133.268 351.758 132.822 351.05 132.508L349.319 131.738C347.975 131.141 346.438 131.053 345.027 131.492C343.615 131.931 342.437 132.864 341.737 134.098L305.971 197.068C305.362 198.14 305.043 199.337 305.043 200.553V200.553C305.043 202.514 305.871 204.394 307.344 205.781C308.817 207.167 310.815 207.946 312.899 207.946H355.005V225.161C355.005 226.894 355.736 228.557 357.039 229.782C358.341 231.008 360.107 231.696 361.949 231.696V231.696C363.79 231.696 365.556 231.008 366.859 229.782C368.161 228.557 368.892 226.894 368.892 225.161V207.946H378.715C380.287 207.946 381.795 207.358 382.907 206.312C384.018 205.266 384.643 203.847 384.643 202.367V202.367C384.643 200.888 384.018 199.469 382.907 198.423C381.795 197.376 380.287 196.789 378.715 196.789Z" fill="#6C63FF"/><path d="M199.532 193.601H189.709V166.376C189.709 165.66 189.559 164.951 189.268 164.29C188.977 163.629 188.55 163.027 188.012 162.521C187.474 162.015 186.835 161.613 186.133 161.339C185.43 161.065 184.676 160.924 183.916 160.924H181.614C180.078 160.924 178.604 161.499 177.518 162.521C176.431 163.544 175.821 164.93 175.821 166.376V193.601H148.114C147.544 193.601 146.984 193.462 146.487 193.198C145.991 192.934 145.576 192.554 145.281 192.095C144.987 191.635 144.824 191.112 144.808 190.576C144.792 190.039 144.924 189.508 145.19 189.034L174.515 136.797C174.88 136.146 175.102 135.431 175.166 134.697C175.23 133.963 175.136 133.224 174.888 132.526C174.641 131.827 174.246 131.183 173.726 130.632C173.207 130.081 172.574 129.634 171.866 129.32L170.135 128.55C168.791 127.953 167.254 127.865 165.843 128.304C164.432 128.743 163.254 129.676 162.553 130.91L126.787 193.88C126.178 194.952 125.86 196.149 125.86 197.365V197.365C125.86 199.326 126.687 201.207 128.16 202.593C129.633 203.979 131.631 204.758 133.715 204.758H175.821V221.973C175.821 222.831 176.001 223.681 176.35 224.474C176.699 225.267 177.21 225.987 177.855 226.594C178.5 227.201 179.265 227.682 180.108 228.011C180.95 228.339 181.853 228.508 182.765 228.508H182.765C184.606 228.508 186.373 227.82 187.675 226.594C188.977 225.369 189.709 223.706 189.709 221.973V204.758H199.532C200.31 204.758 201.081 204.614 201.8 204.334C202.519 204.053 203.173 203.642 203.723 203.124C204.273 202.606 204.71 201.991 205.008 201.314C205.306 200.638 205.459 199.912 205.459 199.179V199.179C205.459 198.447 205.306 197.721 205.008 197.045C204.71 196.368 204.273 195.753 203.723 195.235C203.173 194.717 202.519 194.306 201.8 194.025C201.081 193.745 200.31 193.601 199.532 193.601V193.601Z" stroke="#3F3D56" stroke-miterlimit="10"/><path d="M383.796 193.601H373.973V166.376C373.973 164.93 373.363 163.544 372.277 162.521C371.19 161.499 369.717 160.924 368.18 160.924H365.879C365.118 160.924 364.365 161.065 363.662 161.339C362.959 161.613 362.32 162.015 361.782 162.521C361.244 163.027 360.818 163.629 360.527 164.29C360.235 164.951 360.086 165.66 360.086 166.376V193.601H332.378C331.809 193.601 331.248 193.462 330.752 193.198C330.256 192.934 329.84 192.554 329.546 192.095C329.252 191.635 329.089 191.112 329.073 190.576C329.057 190.039 329.188 189.508 329.454 189.034L358.779 136.797C359.145 136.146 359.367 135.431 359.431 134.697C359.495 133.963 359.401 133.224 359.153 132.526C358.906 131.827 358.51 131.183 357.991 130.632C357.471 130.081 356.839 129.634 356.131 129.32L354.4 128.55C353.056 127.953 351.519 127.865 350.108 128.304C348.696 128.743 347.518 129.676 346.817 130.91L311.052 193.88C310.443 194.952 310.124 196.149 310.124 197.365C310.124 199.326 310.952 201.207 312.425 202.593C313.898 203.979 315.896 204.758 317.979 204.758H360.086V221.973C360.086 223.706 360.817 225.369 362.119 226.594C363.422 227.82 365.188 228.508 367.029 228.508V228.508C368.871 228.508 370.637 227.82 371.939 226.594C373.242 225.369 373.973 223.706 373.973 221.973V204.758H383.796C384.575 204.758 385.345 204.614 386.065 204.334C386.784 204.053 387.437 203.642 387.988 203.124C388.538 202.606 388.975 201.991 389.273 201.314C389.57 200.638 389.724 199.912 389.724 199.179V199.179C389.724 197.7 389.099 196.281 387.988 195.235C386.876 194.188 385.368 193.601 383.796 193.601V193.601Z" stroke="#3F3D56" stroke-miterlimit="10"/><path d="M257.284 124.582C233.526 124.582 216.468 138.928 216.468 172.401C216.468 210.337 233.526 220.379 257.284 220.379C281.042 220.379 299.116 209.381 299.116 172.401C299.116 132.871 281.042 124.582 257.284 124.582ZM257.44 207.787C240.984 207.787 232.388 198.701 232.388 172.425C232.388 149.241 241.336 137.015 257.792 137.015C274.247 137.015 283.196 145.046 283.196 172.425C283.196 198.039 273.895 207.787 257.44 207.787V207.787Z" stroke="#3F3D56" stroke-miterlimit="10"/><path d="M238.24 92.1047C240.21 92.1047 241.806 90.602 241.806 88.7482C241.806 86.8945 240.21 85.3917 238.24 85.3917C236.27 85.3917 234.674 86.8945 234.674 88.7482C234.674 90.602 236.27 92.1047 238.24 92.1047Z" fill="#2F2E41"/><path d="M246.938 108.396C252.463 108.396 256.942 102.935 256.942 96.1981C256.942 89.4613 252.463 84 246.938 84C241.414 84 236.935 89.4613 236.935 96.1981C236.935 102.935 241.414 108.396 246.938 108.396Z" fill="#2F2E41"/><path opacity="0.1" d="M246.938 104.712C241.927 104.712 237.777 100.219 237.049 94.3561C236.973 94.9675 236.935 95.5825 236.935 96.1981C236.935 102.935 241.414 108.396 246.938 108.396C252.463 108.396 256.942 102.935 256.942 96.1981C256.942 95.5825 256.904 94.9675 256.828 94.3561C256.1 100.219 251.95 104.712 246.938 104.712Z" fill="black"/><path d="M267.294 131.921C267.079 132.751 266.153 133.417 265.127 133.882C262.97 134.859 260.31 135.151 257.73 135.249C257.071 135.286 256.411 135.275 255.755 135.214C254.483 135.099 253.29 134.582 252.368 133.749C252.302 133.709 252.248 133.654 252.212 133.588C252.175 133.523 252.156 133.45 252.157 133.376C252.158 133.302 252.179 133.23 252.218 133.166C252.257 133.102 252.313 133.048 252.38 133.009C253.754 131.589 256.046 130.718 258.356 130.091C260.107 129.616 263.16 128.384 265.07 128.55C266.92 128.711 267.565 130.872 267.294 131.921Z" fill="#3F3D56"/><path opacity="0.1" d="M267.294 131.921C267.079 132.751 266.153 133.417 265.127 133.882C262.97 134.859 260.31 135.151 257.73 135.249C257.071 135.286 256.411 135.275 255.755 135.214C254.483 135.099 253.29 134.582 252.368 133.749C252.302 133.709 252.248 133.654 252.212 133.588C252.175 133.523 252.156 133.45 252.157 133.376C252.158 133.302 252.179 133.23 252.218 133.166C252.257 133.102 252.313 133.048 252.38 133.009C253.754 131.589 256.046 130.718 258.356 130.091C260.107 129.616 263.16 128.384 265.07 128.55C266.92 128.711 267.565 130.872 267.294 131.921Z" fill="black"/><path d="M239.872 125.711C239.213 126.925 239.094 128.336 239.54 129.633C239.994 130.92 240.844 132.052 241.981 132.884C244.772 134.99 248.612 135.279 252.188 135.25C255.323 135.224 258.452 135.022 261.561 134.645C262.603 134.559 263.626 134.335 264.602 133.981C265.769 133.506 266.795 132.634 267.211 131.503C267.626 130.371 267.331 128.986 266.344 128.231C265.477 127.568 264.281 127.476 263.166 127.413L256.784 127.052C257.414 126.452 258.254 126.112 259.022 125.676C260.04 125.096 260.717 124.124 261.458 123.247C262.599 121.963 263.841 120.762 265.173 119.652C265.381 120.774 266.134 121.694 267.022 122.468C267.909 123.242 268.931 123.865 269.853 124.602C272.087 126.386 273.695 128.808 276.043 130.456C277.659 130.056 279.169 129.346 280.48 128.371L279.567 126.815C279.491 126.655 279.372 126.516 279.223 126.411C278.964 126.261 278.631 126.338 278.331 126.296C277.529 126.183 277.179 125.312 276.865 124.608C276.001 122.677 274.347 121.179 272.934 119.56C271.892 118.365 270.967 117.082 270.171 115.729C269.697 114.922 269.262 114.082 268.618 113.387C267.974 112.692 267.072 112.145 266.092 112.143C265.226 112.142 264.428 112.555 263.683 112.971C261.416 114.239 259.234 115.638 257.151 117.16C256.061 117.956 254.977 118.798 253.698 119.287C253.16 119.492 252.592 119.633 252.076 119.883C251.171 120.321 250.484 121.063 249.745 121.721C247.109 124.068 243.499 125.589 239.872 125.711Z" fill="#3F3D56"/><path d="M253.217 109.002C253.187 109.72 253.025 110.427 252.738 111.092C252.592 111.424 252.375 111.724 252.101 111.973C251.827 112.223 251.501 112.416 251.143 112.542C250.636 112.67 250.104 112.686 249.589 112.589C249.14 112.545 248.707 112.406 248.322 112.183C247.724 111.796 247.426 111.105 247.317 110.429C247.208 109.753 247.257 109.063 247.187 108.383C247.119 107.834 247.008 107.29 246.855 106.756C246.808 106.578 246.76 106.401 246.713 106.224C246.667 106.047 246.622 105.871 246.58 105.694C246.542 105.528 246.506 105.361 246.476 105.193C246.45 105.051 246.428 104.909 246.411 104.765C246.396 104.341 246.321 103.92 246.188 103.514C246.063 103.25 245.906 103.001 245.722 102.771C245.642 102.665 245.566 102.558 245.495 102.448C245.292 102.161 245.197 101.817 245.227 101.473C245.235 101.419 245.249 101.367 245.268 101.316C245.274 101.297 245.282 101.277 245.291 101.258C245.369 101.238 245.441 101.201 245.5 101.148C245.56 101.096 245.605 101.031 245.631 100.959C245.661 100.805 245.647 100.645 245.59 100.497C245.525 100.29 245.436 100.09 245.325 99.9017C245.252 99.7772 245.004 99.5529 245.002 99.4105C244.999 99.1239 245.594 98.8931 245.835 98.7801C246.57 98.4335 247.39 98.277 248.211 98.3266C248.737 98.3601 249.308 98.5124 249.598 98.9275C249.859 99.3016 249.825 99.7862 249.936 100.221C249.948 100.284 249.976 100.344 250.019 100.394C250.075 100.442 250.147 100.473 250.223 100.482C250.352 100.506 250.484 100.511 250.614 100.497H250.615C250.65 100.494 250.684 100.49 250.718 100.483C250.921 100.448 251.113 100.37 251.28 100.255C251.388 100.227 251.496 100.205 251.606 100.188C251.61 100.188 251.615 100.187 251.619 100.186C252.055 101.48 252.111 102.868 252.468 104.186C252.645 104.841 252.898 105.489 252.933 106.164C252.936 106.193 252.937 106.223 252.938 106.254C252.943 106.471 252.925 106.689 252.934 106.905C252.938 107.003 252.949 107.1 252.969 107.195C253.008 107.349 253.057 107.5 253.114 107.649L253.117 107.656C253.133 107.704 253.149 107.752 253.162 107.8C253.172 107.835 253.18 107.87 253.187 107.905L253.188 107.907C253.253 108.269 253.262 108.638 253.217 109.002V109.002Z" fill="#FBBEBE"/><path d="M247.112 100.537C249.947 100.537 252.245 98.3744 252.245 95.7068C252.245 93.0393 249.947 90.8767 247.112 90.8767C244.278 90.8767 241.98 93.0393 241.98 95.7068C241.98 98.3744 244.278 100.537 247.112 100.537Z" fill="#FBBEBE"/><path d="M279.695 122.024C279.546 120.706 279.048 119.444 278.247 118.354C278.381 119.099 278.514 119.844 278.648 120.588C278.481 120.634 278.305 120.632 278.14 120.584C277.974 120.537 277.827 120.444 277.717 120.319C277.501 120.065 277.335 119.776 277.229 119.467C276.646 118.105 275.883 116.817 274.96 115.633C271.692 115.377 268.463 114.102 265.59 112.616C262.716 111.131 260.026 109.351 257.19 107.803C256.699 107.523 256.187 107.277 255.658 107.066C254.771 106.731 253.775 106.557 252.933 106.164C252.877 106.137 252.82 106.11 252.765 106.081C252.575 105.984 252.395 105.87 252.227 105.741C252.137 105.672 252.051 105.598 251.97 105.519C251.55 105.059 251.217 104.535 250.986 103.97C250.534 103.03 250.373 101.896 249.923 100.956C250.13 100.774 250.363 100.619 250.614 100.497H250.615C250.652 100.479 250.688 100.462 250.726 100.445C250.904 100.366 251.089 100.302 251.28 100.255C251.388 100.228 251.496 100.205 251.606 100.188C251.61 100.188 251.615 100.187 251.619 100.186C252.127 100.108 252.648 100.147 253.137 100.299C253.852 100.526 254.455 100.981 255.056 101.41C256.032 102.058 256.969 102.757 257.861 103.505C258.357 103.952 258.809 104.443 259.342 104.849C259.785 105.171 260.253 105.462 260.74 105.721C263.625 107.338 266.511 108.956 269.397 110.573C270.374 111.121 271.351 111.668 272.307 112.248C273.757 113.129 275.156 114.083 276.554 115.037C277.378 115.599 278.201 116.161 279.024 116.723C279.294 116.885 279.531 117.091 279.724 117.332C279.895 117.605 280.001 117.91 280.035 118.225C280.242 119.499 280.125 120.8 279.695 122.024V122.024Z" fill="#FBBEBE"/><path d="M254.49 112.634C254.143 114.096 252.574 114.979 251.754 116.263C250.734 117.856 251.15 119.708 251.533 121.532C250.834 122.1 250.134 122.667 249.434 123.234C249.048 123.546 248.662 123.86 248.246 124.136C247.64 124.518 247.006 124.86 246.35 125.161C245.73 125.46 245.111 125.76 244.492 126.06C243.916 126.365 243.306 126.608 242.673 126.786C241.452 127.08 240.156 126.874 238.949 126.533C238.807 126.498 238.67 126.445 238.542 126.376C238.467 126.334 238.401 126.278 238.349 126.212C238.23 126.011 238.187 125.778 238.226 125.551C238.349 123.639 238.845 121.766 239.34 119.908C239.605 118.793 239.961 117.699 240.404 116.636C240.839 115.725 241.339 114.842 241.901 113.995C242.521 112.929 243.256 111.925 244.093 110.999C244.501 110.643 244.844 110.227 245.109 109.767C245.418 109.103 245.299 108.343 245.361 107.621C245.409 107.078 245.562 106.549 245.813 106.058V106.057C245.947 105.793 246.108 105.542 246.295 105.307C246.379 105.492 246.464 105.677 246.548 105.862C246.604 105.983 246.659 106.104 246.713 106.224C246.785 106.38 246.855 106.535 246.925 106.689C247.128 107.133 247.33 107.576 247.533 108.02C247.751 108.578 248.062 109.1 248.455 109.566C248.634 109.805 248.876 109.996 249.157 110.12C249.438 110.244 249.749 110.298 250.059 110.276C250.369 110.253 250.667 110.156 250.925 109.993C251.183 109.829 251.391 109.606 251.53 109.344C251.822 108.856 252.034 108.328 252.158 107.78C252.329 107.112 252.353 106.418 252.227 105.741C252.017 104.438 251.429 103.107 251.001 101.896C250.826 101.492 250.726 101.064 250.702 100.629C250.703 100.58 250.708 100.531 250.718 100.483C250.721 100.471 250.723 100.458 250.726 100.445C250.904 100.366 251.089 100.302 251.28 100.255C251.388 100.227 251.496 100.205 251.606 100.188C251.983 102.107 252.36 104.026 252.738 105.945C252.746 105.99 252.756 106.035 252.765 106.081C252.819 106.356 252.873 106.631 252.934 106.905C252.989 107.154 253.048 107.402 253.114 107.649L253.117 107.656C253.14 107.74 253.163 107.822 253.187 107.905L253.188 107.907C253.255 108.133 253.33 108.358 253.414 108.579C253.926 109.911 254.818 111.252 254.49 112.634Z" fill="#6C63FF"/><path d="M275.317 133.17C275.301 133.452 275.359 133.733 275.486 133.988C275.807 134.541 276.578 134.666 277.245 134.718C281.14 135.019 285.06 134.907 288.928 134.383C289.138 134.369 289.342 134.31 289.523 134.209C290.073 133.846 289.734 132.962 289.134 132.678C288.533 132.395 287.82 132.464 287.161 132.341C286.506 132.186 285.883 131.931 285.315 131.587C283.979 130.865 282.662 130.111 281.364 129.327C280.591 128.86 279.68 128.362 278.81 128.639C276.453 129.389 275.302 130.778 275.317 133.17Z" fill="#3F3D56"/><path d="M246.6 105.591V105.592C246.594 105.627 246.588 105.66 246.58 105.694C246.571 105.749 246.559 105.806 246.548 105.862C246.44 106.381 246.308 106.899 246.156 107.413C245.738 108.833 245.179 110.231 244.624 111.608C243.135 115.3 241.645 118.992 240.155 122.685C239.78 123.615 239.405 124.546 238.978 125.457C238.835 125.761 238.688 126.067 238.542 126.376C238.018 127.484 237.516 128.628 237.348 129.807C237.193 130.582 237.175 131.377 237.295 132.159C237.462 132.931 237.961 133.686 238.741 133.972C239.122 134.112 239.667 134.299 239.563 134.672C239.507 134.877 239.26 134.976 239.038 135.011C238.745 135.055 238.445 135.037 238.16 134.96C237.875 134.883 237.612 134.748 237.388 134.564C236.972 134.216 236.652 133.675 236.098 133.617C235.714 133.577 235.361 133.793 235.009 133.945C233.576 134.561 231.906 134.13 230.4 133.692C230.519 133.118 231.131 132.74 231.739 132.625C232.347 132.51 232.976 132.592 233.596 132.576C233.795 132.586 233.992 132.538 234.161 132.439C234.312 132.309 234.418 132.138 234.465 131.95C234.864 130.836 235.162 129.691 235.353 128.529C235.553 127.315 235.637 126.082 235.922 124.883C236.144 123.947 236.486 123.041 236.78 122.123C237.349 120.231 237.816 118.314 238.179 116.379C238.363 115.575 238.494 114.761 238.573 113.942C238.623 113.262 238.599 112.579 238.669 111.902C238.786 111.022 238.981 110.152 239.253 109.302C239.519 108.374 239.785 107.447 240.05 106.521C240.444 105.149 240.867 103.725 241.866 102.659C242.212 102.284 242.637 101.979 243.114 101.765C243.591 101.551 244.11 101.431 244.638 101.413C244.836 101.413 245.033 101.433 245.227 101.473C245.259 101.48 245.291 101.487 245.323 101.496C245.534 101.547 245.736 101.626 245.924 101.73C246.232 101.546 246.389 101.61 246.593 101.894C246.772 102.195 246.857 102.537 246.837 102.882C246.854 103.79 246.775 104.698 246.6 105.591Z" fill="#FBBEBE"/><path d="M246.938 106.677L246.925 106.689L246.855 106.756L246.156 107.413L245.813 106.058L244.638 101.413C244.836 101.413 245.033 101.433 245.227 101.473C245.235 101.419 245.249 101.367 245.268 101.316L245.323 101.496L245.722 102.771L246.476 105.193L246.6 105.591V105.592L246.938 106.677Z" fill="#6C63FF"/><path d="M251.376 91.8579C251.376 92.288 251.285 92.7138 251.11 93.1109C250.934 93.5081 250.677 93.8687 250.353 94.1723C250.236 94.2828 250.111 94.3851 249.977 94.4784C249.377 94.9043 248.646 95.1348 247.894 95.1351H243.721C242.799 95.1338 241.915 94.7881 241.264 94.1739C240.612 93.5598 240.246 92.7274 240.246 91.8595C240.246 90.9916 240.612 90.1592 241.264 89.5451C241.915 88.9309 242.799 88.5852 243.721 88.5839H247.894C248.816 88.5862 249.7 88.9317 250.353 89.5451C251.005 90.1585 251.373 90.99 251.376 91.8579V91.8579Z" fill="#2F2E41"/><path d="M255.289 92.1047C257.259 92.1047 258.855 90.602 258.855 88.7482C258.855 86.8945 257.259 85.3917 255.289 85.3917C253.319 85.3917 251.723 86.8945 251.723 88.7482C251.723 90.602 253.319 92.1047 255.289 92.1047Z" fill="#2F2E41"/><path opacity="0.1" d="M255.202 85.3917C255.158 85.3917 255.115 85.3934 255.071 85.3948C255.994 85.4264 256.868 85.7935 257.508 86.419C258.149 87.0444 258.507 87.8794 258.507 88.7482C258.507 89.6171 258.149 90.4521 257.508 91.0775C256.868 91.703 255.994 92.0701 255.071 92.1016C255.115 92.1031 255.158 92.1047 255.202 92.1047C256.148 92.1047 257.055 91.7511 257.724 91.1216C258.393 90.4922 258.768 89.6384 258.768 88.7482C258.768 87.858 258.393 87.0043 257.724 86.3748C257.055 85.7454 256.148 85.3917 255.202 85.3917V85.3917Z" fill="black"/><path opacity="0.1" d="M238.24 85.3917C238.284 85.3917 238.327 85.3934 238.371 85.3948C237.448 85.4264 236.574 85.7935 235.934 86.419C235.293 87.0444 234.935 87.8794 234.935 88.7482C234.935 89.6171 235.293 90.4521 235.934 91.0775C236.574 91.703 237.448 92.0701 238.371 92.1016C238.327 92.1031 238.284 92.1047 238.24 92.1047C237.295 92.104 236.388 91.75 235.72 91.1206C235.052 90.4912 234.677 89.6379 234.677 88.7482C234.677 87.8585 235.052 87.0053 235.72 86.3759C236.388 85.7465 237.295 85.3925 238.24 85.3917Z" fill="black"/><path opacity="0.1" d="M249.977 94.4784C249.377 94.9043 248.646 95.1348 247.894 95.1351H243.721C242.97 95.1348 242.238 94.9043 241.638 94.4784H249.977Z" fill="black"/><path d="M276.926 118.799C276.926 118.799 277.825 121.238 278.648 120.588L277.992 117.401L276.926 118.799Z" fill="#FBBEBE"/><path d="M386.333 193.155C387.17 193.441 388.067 193.541 388.952 193.445C389.837 193.35 390.687 193.063 391.434 192.606C392.181 192.149 392.805 191.535 393.257 190.812C393.709 190.089 393.976 189.277 394.038 188.441C394.1 187.604 393.954 186.766 393.613 185.991C393.271 185.216 392.743 184.527 392.071 183.977C391.398 183.427 390.599 183.032 389.736 182.823C388.873 182.613 387.97 182.595 387.099 182.77L387.243 185.557L385.842 183.168C384.467 183.776 383.405 184.873 382.889 186.218C382.705 186.689 382.594 187.183 382.558 187.683C382.469 188.857 382.79 190.027 383.471 191.014C384.152 192.002 385.157 192.753 386.333 193.155V193.155Z" fill="#57B894"/><path d="M393.265 225.479C392.77 223.109 394.914 221.008 397.03 219.642C399.147 218.276 401.621 216.934 402.343 214.616C403.381 211.285 400.289 208.234 397.882 205.603C396.097 203.651 394.564 201.506 393.315 199.214C392.814 198.295 392.354 197.335 392.222 196.309C392.032 194.833 392.536 193.363 393.044 191.955C394.736 187.263 396.545 182.61 398.47 177.997" stroke="#3F3D56" stroke-miterlimit="10"/><path d="M386.57 192.437C387.407 192.724 388.304 192.823 389.189 192.728C390.074 192.633 390.924 192.345 391.671 191.888C392.418 191.431 393.042 190.817 393.494 190.094C393.946 189.372 394.213 188.56 394.275 187.723C394.337 186.887 394.191 186.048 393.85 185.273C393.508 184.499 392.98 183.809 392.308 183.26C391.635 182.71 390.836 182.315 389.973 182.105C389.11 181.896 388.207 181.878 387.336 182.052L387.48 184.839L386.079 182.451C384.704 183.059 383.642 184.156 383.126 185.501C382.942 185.972 382.831 186.465 382.795 186.965C382.706 188.14 383.027 189.309 383.708 190.297C384.389 191.284 385.394 192.035 386.57 192.437V192.437Z" stroke="#3F3D56" stroke-miterlimit="10"/><path d="M392.562 177.034C392.891 176.181 393.442 175.419 394.166 174.819C394.889 174.219 395.762 173.8 396.703 173.6L397.177 176.25L398.055 173.467C399.274 173.484 400.456 173.866 401.43 174.556C402.405 175.247 403.12 176.211 403.474 177.309C403.828 178.407 403.802 179.583 403.4 180.667C402.998 181.75 402.24 182.685 401.236 183.337C400.233 183.989 399.035 184.324 397.816 184.293C396.596 184.262 395.419 183.868 394.454 183.166C393.489 182.465 392.785 181.493 392.445 180.391C392.105 179.288 392.146 178.113 392.562 177.034H392.562Z" fill="#57B894"/><path d="M392.878 176.077C393.206 175.224 393.758 174.462 394.482 173.862C395.205 173.262 396.078 172.843 397.019 172.644L397.493 175.293L398.371 172.511C399.59 172.528 400.772 172.909 401.746 173.599C402.72 174.29 403.436 175.254 403.79 176.352C404.144 177.451 404.118 178.626 403.716 179.71C403.314 180.794 402.556 181.729 401.552 182.381C400.549 183.032 399.351 183.367 398.131 183.336C396.912 183.306 395.735 182.911 394.77 182.21C393.805 181.508 393.101 180.536 392.761 179.434C392.421 178.332 392.462 177.156 392.878 176.077H392.878Z" stroke="#3F3D56" stroke-miterlimit="10"/><path d="M396.872 205.657C398.201 206.11 399.659 206.088 400.971 205.594C402.283 205.1 403.355 204.169 403.985 202.979C404.614 201.789 404.756 200.422 404.383 199.139C404.01 197.857 403.149 196.748 401.964 196.025L401.289 198.163L400.811 195.483C400.806 195.48 400.801 195.479 400.796 195.477C400.086 195.234 399.332 195.125 398.577 195.157C397.822 195.188 397.08 195.36 396.396 195.661C395.711 195.962 395.096 196.387 394.586 196.912C394.076 197.437 393.681 198.051 393.423 198.72C393.165 199.388 393.05 200.098 393.084 200.809C393.118 201.519 393.3 202.217 393.62 202.861C393.941 203.505 394.393 204.084 394.951 204.564C395.509 205.043 396.162 205.415 396.872 205.657H396.872Z" fill="#57B894"/><path d="M397.146 204.688C398.474 205.141 399.933 205.119 401.245 204.625C402.556 204.131 403.629 203.2 404.258 202.01C404.888 200.82 405.029 199.453 404.657 198.17C404.284 196.888 403.423 195.779 402.238 195.056L401.563 197.194L401.084 194.513C401.08 194.511 401.075 194.51 401.07 194.508C400.36 194.265 399.605 194.156 398.85 194.188C398.095 194.219 397.354 194.391 396.669 194.692C395.985 194.993 395.37 195.418 394.86 195.943C394.35 196.468 393.954 197.082 393.697 197.751C393.439 198.419 393.324 199.129 393.358 199.84C393.392 200.55 393.574 201.248 393.894 201.892C394.215 202.536 394.667 203.115 395.225 203.595C395.783 204.074 396.436 204.446 397.146 204.688H397.146Z" stroke="#3F3D56" stroke-miterlimit="10"/><path d="M390.883 214.649C391.111 215.872 391.779 216.984 392.775 217.798C393.771 218.612 395.034 219.08 396.353 219.121C397.671 219.163 398.965 218.777 400.017 218.028C401.069 217.278 401.815 216.211 402.13 215.006C402.445 213.8 402.31 212.529 401.748 211.406C401.186 210.283 400.23 209.376 399.042 208.837C397.853 208.298 396.504 208.16 395.221 208.446C393.937 208.733 392.797 209.426 391.992 210.409L394.555 214.04L391.052 212.113C390.781 212.933 390.723 213.803 390.883 214.649V214.649Z" fill="#57B894"/><path d="M391.12 213.932C391.348 215.155 392.016 216.266 393.012 217.081C394.008 217.895 395.271 218.362 396.59 218.404C397.908 218.446 399.202 218.06 400.254 217.31C401.306 216.561 402.052 215.494 402.367 214.288C402.682 213.083 402.547 211.812 401.985 210.688C401.423 209.565 400.467 208.658 399.279 208.119C398.09 207.581 396.741 207.443 395.457 207.729C394.174 208.015 393.034 208.708 392.229 209.692L394.792 213.323L391.289 211.396C391.018 212.216 390.96 213.086 391.12 213.932V213.932Z" stroke="#3F3D56" stroke-miterlimit="10"/><path d="M110.49 206.345C111.04 206.533 111.629 206.599 112.211 206.536C112.793 206.474 113.351 206.285 113.842 205.984C114.332 205.684 114.742 205.281 115.039 204.806C115.336 204.331 115.512 203.798 115.552 203.248C115.593 202.698 115.497 202.147 115.273 201.638C115.049 201.13 114.702 200.677 114.26 200.315C113.818 199.954 113.293 199.694 112.726 199.557C112.159 199.419 111.566 199.407 110.993 199.522L111.088 201.353L110.167 199.784C109.264 200.183 108.566 200.904 108.227 201.788C108.107 202.097 108.033 202.421 108.01 202.75C107.952 203.522 108.162 204.29 108.61 204.939C109.057 205.587 109.717 206.081 110.49 206.345V206.345Z" fill="#57B894"/><path d="M115.045 227.583C114.72 226.026 116.128 224.645 117.518 223.748C118.909 222.85 120.534 221.969 121.009 220.446C121.691 218.257 119.659 216.253 118.078 214.524C116.905 213.241 115.898 211.832 115.077 210.326C114.72 209.735 114.477 209.089 114.359 208.418C114.235 207.448 114.566 206.482 114.9 205.557C116.011 202.474 117.199 199.417 118.464 196.386" stroke="#3F3D56" stroke-miterlimit="10"/><path d="M110.646 205.874C111.196 206.062 111.785 206.127 112.367 206.065C112.948 206.002 113.506 205.813 113.997 205.513C114.488 205.213 114.898 204.809 115.195 204.334C115.492 203.859 115.668 203.326 115.708 202.777C115.749 202.227 115.653 201.676 115.429 201.167C115.204 200.658 114.858 200.205 114.416 199.844C113.974 199.483 113.448 199.223 112.882 199.085C112.315 198.948 111.722 198.936 111.149 199.051L111.244 200.882L110.323 199.313C109.42 199.712 108.722 200.433 108.383 201.316C108.262 201.626 108.189 201.95 108.165 202.279C108.107 203.05 108.318 203.819 108.765 204.467C109.213 205.116 109.873 205.61 110.646 205.874V205.874Z" stroke="#3F3D56" stroke-miterlimit="10"/><path d="M114.583 195.754C114.799 195.193 115.161 194.692 115.636 194.298C116.112 193.904 116.685 193.629 117.303 193.498L117.615 195.238L118.192 193.41C118.993 193.421 119.769 193.672 120.409 194.126C121.049 194.579 121.52 195.213 121.752 195.934C121.985 196.656 121.968 197.428 121.704 198.14C121.439 198.852 120.941 199.467 120.282 199.895C119.622 200.323 118.835 200.543 118.034 200.523C117.233 200.503 116.46 200.243 115.826 199.783C115.192 199.322 114.729 198.683 114.506 197.959C114.282 197.235 114.309 196.462 114.583 195.754V195.754Z" fill="#57B894"/><path d="M114.79 195.125C115.006 194.564 115.368 194.064 115.844 193.67C116.319 193.275 116.893 193 117.511 192.869L117.822 194.61L118.399 192.782C119.2 192.793 119.977 193.043 120.617 193.497C121.257 193.951 121.727 194.584 121.96 195.306C122.192 196.027 122.175 196.8 121.911 197.512C121.647 198.224 121.149 198.838 120.489 199.266C119.83 199.695 119.043 199.914 118.242 199.894C117.441 199.874 116.668 199.615 116.033 199.154C115.399 198.693 114.937 198.055 114.713 197.33C114.49 196.606 114.517 195.834 114.79 195.125V195.125Z" stroke="#3F3D56" stroke-miterlimit="10"/><path d="M117.415 214.559C118.287 214.857 119.246 214.843 120.108 214.518C120.969 214.194 121.674 213.582 122.087 212.8C122.501 212.018 122.594 211.12 122.349 210.277C122.104 209.435 121.539 208.706 120.76 208.231L120.317 209.636L120.002 207.875C119.999 207.873 119.996 207.872 119.993 207.871C119.526 207.711 119.03 207.64 118.534 207.66C118.038 207.681 117.551 207.793 117.101 207.991C116.651 208.189 116.247 208.468 115.912 208.813C115.577 209.158 115.317 209.562 115.148 210.001C114.978 210.441 114.903 210.907 114.925 211.374C114.947 211.841 115.067 212.299 115.278 212.722C115.488 213.146 115.785 213.526 116.152 213.841C116.519 214.156 116.948 214.4 117.415 214.559V214.559Z" fill="#57B894"/><path d="M117.595 213.923C118.467 214.221 119.426 214.206 120.287 213.881C121.149 213.557 121.854 212.945 122.267 212.163C122.681 211.381 122.774 210.483 122.529 209.641C122.284 208.798 121.719 208.07 120.94 207.594L120.497 208.999L120.182 207.238C120.179 207.236 120.176 207.235 120.172 207.234C119.706 207.075 119.21 207.004 118.715 207.025C118.219 207.046 117.732 207.158 117.282 207.356C116.374 207.756 115.672 208.479 115.33 209.365C114.988 210.252 115.035 211.231 115.46 212.085C115.884 212.94 116.652 213.601 117.595 213.923V213.923Z" stroke="#3F3D56" stroke-miterlimit="10"/><path d="M113.48 220.467C113.63 221.271 114.069 222.001 114.723 222.536C115.377 223.071 116.207 223.378 117.073 223.406C117.94 223.433 118.79 223.179 119.481 222.687C120.172 222.195 120.662 221.494 120.869 220.702C121.076 219.91 120.988 219.074 120.618 218.337C120.249 217.599 119.621 217.003 118.84 216.649C118.059 216.295 117.173 216.204 116.329 216.392C115.486 216.58 114.737 217.035 114.208 217.682L115.892 220.067L113.591 218.801C113.412 219.34 113.374 219.912 113.48 220.467V220.467Z" fill="#57B894"/><path d="M113.635 219.996C113.785 220.8 114.224 221.53 114.879 222.065C115.533 222.6 116.363 222.907 117.229 222.934C118.095 222.962 118.945 222.708 119.636 222.216C120.327 221.723 120.818 221.022 121.025 220.23C121.232 219.438 121.143 218.603 120.774 217.865C120.404 217.127 119.777 216.531 118.996 216.177C118.215 215.823 117.328 215.733 116.485 215.921C115.642 216.109 114.893 216.564 114.364 217.21L116.048 219.596L113.747 218.33C113.568 218.869 113.53 219.44 113.635 219.996V219.996Z" stroke="#3F3D56" stroke-miterlimit="10"/><path d="M240.951 172.748C243.546 172.748 245.65 170.186 245.65 167.025C245.65 163.863 243.546 161.301 240.951 161.301C238.355 161.301 236.251 163.863 236.251 167.025C236.251 170.186 238.355 172.748 240.951 172.748Z" fill="#2F2E41"/><path d="M266.521 172.878C269.116 172.878 271.22 170.316 271.22 167.155C271.22 163.994 269.116 161.431 266.521 161.431C263.925 161.431 261.821 163.994 261.821 167.155C261.821 170.316 263.925 172.878 266.521 172.878Z" fill="#2F2E41"/><path d="M262.927 184.066C262.927 186.652 259.09 188.749 254.358 188.749C249.625 188.749 245.788 186.652 245.788 184.066C245.788 181.826 248.666 179.953 252.511 179.495C253.123 179.419 253.74 179.381 254.358 179.383C255.392 179.38 256.424 179.484 257.434 179.695C260.647 180.369 262.927 182.073 262.927 184.066Z" fill="#2F2E41"/><path d="M242.056 171.448C244.652 171.448 246.756 168.885 246.756 165.724C246.756 162.563 244.652 160 242.056 160C239.461 160 237.357 162.563 237.357 165.724C237.357 168.885 239.461 171.448 242.056 171.448Z" stroke="#3F3D56" stroke-miterlimit="10"/><path d="M267.627 171.578C270.222 171.578 272.326 169.015 272.326 165.854C272.326 162.693 270.222 160.13 267.627 160.13C265.031 160.13 262.927 162.693 262.927 165.854C262.927 169.015 265.031 171.578 267.627 171.578Z" stroke="#3F3D56" stroke-miterlimit="10"/><path d="M255.463 187.448C260.196 187.448 264.033 185.351 264.033 182.765C264.033 180.179 260.196 178.082 255.463 178.082C250.731 178.082 246.894 180.179 246.894 182.765C246.894 185.351 250.731 187.448 255.463 187.448Z" stroke="#3F3D56" stroke-miterlimit="10"/><path d="M257.537 180.085C257.539 180.412 257.408 180.728 257.172 180.968C257.06 181.083 256.924 181.174 256.773 181.237C256.622 181.3 256.458 181.333 256.293 181.334H253.528C253.188 181.323 252.866 181.185 252.633 180.951C252.399 180.717 252.274 180.406 252.284 180.085C252.283 179.832 252.362 179.583 252.511 179.372C253.123 179.291 253.74 179.251 254.358 179.253C255.394 179.249 256.426 179.361 257.434 179.586C257.503 179.744 257.537 179.914 257.537 180.085V180.085Z" fill="white"/><path d="M242.056 165.464C242.82 165.464 243.438 164.881 243.438 164.163C243.438 163.444 242.82 162.862 242.056 162.862C241.293 162.862 240.674 163.444 240.674 164.163C240.674 164.881 241.293 165.464 242.056 165.464Z" fill="white"/><path d="M267.765 165.464C268.528 165.464 269.147 164.881 269.147 164.163C269.147 163.444 268.528 162.862 267.765 162.862C267.001 162.862 266.383 163.444 266.383 164.163C266.383 164.881 267.001 165.464 267.765 165.464Z" fill="white"/><path opacity="0.3" d="M269.147 177.692C269.91 177.692 270.529 177.109 270.529 176.391C270.529 175.672 269.91 175.09 269.147 175.09C268.384 175.09 267.765 175.672 267.765 176.391C267.765 177.109 268.384 177.692 269.147 177.692Z" fill="#6C63FF"/><path opacity="0.3" d="M235.422 177.692C236.185 177.692 236.804 177.109 236.804 176.391C236.804 175.672 236.185 175.09 235.422 175.09C234.658 175.09 234.04 175.672 234.04 176.391C234.04 177.109 234.658 177.692 235.422 177.692Z" fill="#6C63FF"/><path opacity="0.1" d="M33.2478 427.32C51.61 427.32 66.4956 424.786 66.4956 421.66C66.4956 418.534 51.61 416 33.2478 416C14.8855 416 0 418.534 0 421.66C0 424.786 14.8855 427.32 33.2478 427.32Z" fill="#6C63FF"/><path d="M17 412.959C17 412.959 28.1373 412.677 31.4919 410.707C34.8465 408.737 48.6177 406.386 49.4526 409.544C50.2875 412.701 66.1858 425.25 53.6123 425.336C41.0388 425.422 24.405 423.722 21.0553 422.039C17.7057 420.356 17 412.959 17 412.959Z" fill="#A8A8A8"/><path opacity="0.2" d="M56.5924 424.677C44.0188 424.763 27.38 423.063 24.0304 421.401C21.4809 420.119 20.4621 415.524 20.1242 413.406H19.7514C19.7514 413.406 20.4571 420.807 23.8068 422.486C27.1564 424.165 43.7952 425.865 56.3638 425.783C59.9967 425.758 61.249 424.693 61.1795 423.117C60.6775 424.067 59.291 424.661 56.5924 424.677Z" fill="black"/><defs><linearGradient id="paint0_linear" x1="-360424" y1="27007" x2="-389475" y2="27007" gradientUnits="userSpaceOnUse"><stop stop-color="#808080" stop-opacity="0.25"/><stop offset="0.54" stop-color="#808080" stop-opacity="0.12"/><stop offset="1" stop-color="#808080" stop-opacity="0.1"/></linearGradient></defs></svg>