<svg width="1301" height="379" viewBox="0 0 1301 379" fill="none" xmlns="http://www.w3.org/2000/svg">
<g filter="url(#filter0_d)">
<g filter="url(#filter1_bdddddif)">
<path d="M527.719 210.703H450.656L456.281 177.938H533.484L527.719 210.703ZM638.391 207.047H604.922L591.844 282H550.641L586.219 77.25L654 77.3906C676.688 77.3906 694.125 82.7344 706.312 93.4219C718.594 104.109 724.031 118.969 722.625 138C720.656 166.125 705.656 185.672 677.625 196.641L706.453 279.75V282H662.578L638.391 207.047ZM610.828 172.875L641.484 173.156C652.359 172.969 661.312 170.062 668.344 164.438C675.469 158.719 679.734 150.984 681.141 141.234C682.453 132.141 681 125.016 676.781 119.859C672.562 114.703 665.859 111.938 656.672 111.562L621.516 111.422L610.828 172.875ZM800.109 284.812C786.797 284.719 774.984 281.484 764.672 275.109C754.453 268.641 746.812 259.828 741.75 248.672C736.688 237.422 734.719 225.047 735.844 211.547L736.266 205.922C737.672 191.109 741.984 177.516 749.203 165.141C756.422 152.766 765.703 143.25 777.047 136.594C788.391 129.844 800.953 126.656 814.734 127.031C834.328 127.406 849.141 134.625 859.172 148.688C869.297 162.656 873.141 180.375 870.703 201.844L868.453 219.141H775.219C774.844 228.984 777.234 236.859 782.391 242.766C787.547 248.672 794.578 251.719 803.484 251.906C817.922 252.281 830.578 246.703 841.453 235.172L859.594 257.672C853.875 266.297 845.625 273.047 834.844 277.922C824.062 282.703 812.484 285 800.109 284.812ZM812.766 159.797C805.453 159.609 798.938 161.906 793.219 166.688C787.594 171.469 782.531 179.766 778.031 191.578H832.594L833.438 187.922C834 184.172 834.047 180.609 833.578 177.234C832.641 171.797 830.344 167.578 826.688 164.578C823.031 161.484 818.391 159.891 812.766 159.797ZM1026.38 206.344C1024.41 222.281 1020.23 236.438 1013.86 248.812C1007.48 261.188 999.562 270.375 990.094 276.375C980.625 282.375 970.125 285.234 958.594 284.953C943.875 284.578 932.25 279.094 923.719 268.5L909.797 340.5H870.141L906.562 129.844L943.125 129.703L940.453 145.031C951.422 132.656 964.359 126.656 979.266 127.031C994.172 127.406 1005.75 132.844 1014 143.344C1022.25 153.75 1026.66 167.906 1027.22 185.812C1027.41 191.625 1027.12 198.469 1026.38 206.344ZM987 203.391L987.844 189.891C988.031 180.797 986.344 173.578 982.781 168.234C979.312 162.891 974.203 160.125 967.453 159.938C955.922 159.562 946.406 164.438 938.906 174.562L927.516 237.281C930.984 246.75 938.438 251.672 949.875 252.047C959.438 252.328 967.406 248.625 973.781 240.938C980.156 233.25 984.562 220.734 987 203.391ZM1125.94 127.031C1139.34 127.219 1150.88 130.688 1160.53 137.438C1170.28 144.094 1177.41 153.328 1181.91 165.141C1186.5 176.859 1188.14 189.891 1186.83 204.234C1184.67 228.422 1176.23 248.016 1161.52 263.016C1146.89 277.922 1128.8 285.188 1107.23 284.812C1094.02 284.625 1082.58 281.25 1072.92 274.688C1063.27 268.031 1056.14 258.844 1051.55 247.125C1046.95 235.406 1045.31 222.469 1046.62 208.312C1049.06 183.188 1057.59 163.219 1072.22 148.406C1086.84 133.594 1104.75 126.469 1125.94 127.031ZM1085.86 222.797C1086.05 231.797 1088.16 238.922 1092.19 244.172C1096.22 249.328 1101.89 252 1109.2 252.188C1121.39 252.562 1130.95 246.984 1137.89 235.453C1144.83 223.828 1148.06 208.594 1147.59 189.75C1147.22 180.75 1145.02 173.578 1140.98 168.234C1137.05 162.797 1131.38 159.984 1123.97 159.797C1112.16 159.422 1102.69 165 1095.56 176.531C1088.53 187.969 1085.3 203.391 1085.86 222.797Z" fill="white"/>
</g>
<g filter="url(#filter2_bdddddif)">
<path d="M362.348 256.842L362.347 256.844C336.737 287.008 313.122 309.61 291.49 324.668C269.855 339.728 250.241 347.215 232.626 347.215C210.998 347.215 192.522 329.136 177.303 292.441C172.893 277.778 168.858 264.015 165.103 251.21C156.261 221.047 148.976 196.199 142.008 177.421C137.045 164.045 132.226 153.702 127.094 146.696C121.96 139.688 116.448 135.937 110.098 135.937C109.27 135.937 108.033 136.316 106.446 136.989C104.834 137.673 102.791 138.691 100.318 140.038C95.4415 142.693 88.8626 146.643 80.5751 151.866L63.5192 131.857C71.5682 125.451 79.5419 118.922 87.3582 112.522C100.512 101.751 113.22 91.3447 125.092 82.5042C134.608 75.4174 143.567 69.3527 151.761 64.9284C159.962 60.5006 167.359 57.7365 173.759 57.2113L173.762 57.211C188.323 55.9262 200.014 59.7975 208.918 68.7648C217.842 77.7516 224.021 91.9093 227.421 111.295C233.459 145.88 238.658 173.139 243.747 193.59C248.831 214.017 253.822 227.734 259.483 235.167C262.323 238.895 265.37 241.095 268.731 241.722C272.091 242.349 275.661 241.383 279.502 238.999C287.156 234.247 296.113 223.721 307.091 208.065V208.064C314.968 196.771 321.042 186.822 325.296 178.207C329.547 169.601 331.994 162.3 332.593 156.308C333.611 147.488 332.229 140.949 329.149 136.264C326.065 131.575 321.326 128.814 315.772 127.463C305.011 124.846 291.072 127.49 279.642 131.78C288.865 104.878 302.188 84.9018 319.574 71.7937C337.171 58.5262 358.976 52.2612 385.014 53.0207L385.017 53.0208C404.191 53.4758 418.23 59.3664 427.22 70.583C436.222 81.8144 440.236 98.4778 439.145 120.635C438.309 137.142 431.532 156.747 418.738 179.465C405.947 202.178 387.161 227.97 362.348 256.842Z" fill="white"/>
</g>
</g>
<defs>
<filter id="filter0_d" x="-4" y="0" width="1309" height="387" filterUnits="userSpaceOnUse" color-interpolation-filters="sRGB">
<feFlood flood-opacity="0" result="BackgroundImageFix"/>
<feColorMatrix in="SourceAlpha" type="matrix" values="0 0 0 0 0 0 0 0 0 0 0 0 0 0 0 0 0 0 127 0" result="hardAlpha"/>
<feOffset dy="4"/>
<feGaussianBlur stdDeviation="2"/>
<feComposite in2="hardAlpha" operator="out"/>
<feColorMatrix type="matrix" values="0 0 0 0 0 0 0 0 0 0 0 0 0 0 0 0 0 0 0.25 0"/>
<feBlend mode="normal" in2="BackgroundImageFix" result="effect1_dropShadow"/>
<feBlend mode="normal" in="SourceGraphic" in2="effect1_dropShadow" result="shape"/>
</filter>
<filter id="filter1_bdddddif" x="446.656" y="73.25" width="744.61" height="275.25" filterUnits="userSpaceOnUse" color-interpolation-filters="sRGB">
<feFlood flood-opacity="0" result="BackgroundImageFix"/>
<feGaussianBlur in="BackgroundImage" stdDeviation="2"/>
<feComposite in2="SourceAlpha" operator="in" result="effect1_backgroundBlur"/>
<feColorMatrix in="SourceAlpha" type="matrix" values="0 0 0 0 0 0 0 0 0 0 0 0 0 0 0 0 0 0 127 0" result="hardAlpha"/>
<feOffset dy="4"/>
<feGaussianBlur stdDeviation="2"/>
<feComposite in2="hardAlpha" operator="out"/>
<feColorMatrix type="matrix" values="0 0 0 0 0 0 0 0 0 0 0 0 0 0 0 0 0 0 0.25 0"/>
<feBlend mode="normal" in2="effect1_backgroundBlur" result="effect2_dropShadow"/>
<feColorMatrix in="SourceAlpha" type="matrix" values="0 0 0 0 0 0 0 0 0 0 0 0 0 0 0 0 0 0 127 0" result="hardAlpha"/>
<feOffset dy="4"/>
<feGaussianBlur stdDeviation="2"/>
<feComposite in2="hardAlpha" operator="out"/>
<feColorMatrix type="matrix" values="0 0 0 0 0 0 0 0 0 0 0 0 0 0 0 0 0 0 0.25 0"/>
<feBlend mode="normal" in2="effect2_dropShadow" result="effect3_dropShadow"/>
<feColorMatrix in="SourceAlpha" type="matrix" values="0 0 0 0 0 0 0 0 0 0 0 0 0 0 0 0 0 0 127 0" result="hardAlpha"/>
<feOffset dy="4"/>
<feGaussianBlur stdDeviation="2"/>
<feComposite in2="hardAlpha" operator="out"/>
<feColorMatrix type="matrix" values="0 0 0 0 0 0 0 0 0 0 0 0 0 0 0 0 0 0 0.25 0"/>
<feBlend mode="normal" in2="effect3_dropShadow" result="effect4_dropShadow"/>
<feColorMatrix in="SourceAlpha" type="matrix" values="0 0 0 0 0 0 0 0 0 0 0 0 0 0 0 0 0 0 127 0" result="hardAlpha"/>
<feOffset dy="4"/>
<feGaussianBlur stdDeviation="2"/>
<feComposite in2="hardAlpha" operator="out"/>
<feColorMatrix type="matrix" values="0 0 0 0 0 0 0 0 0 0 0 0 0 0 0 0 0 0 0.25 0"/>
<feBlend mode="normal" in2="effect4_dropShadow" result="effect5_dropShadow"/>
<feColorMatrix in="SourceAlpha" type="matrix" values="0 0 0 0 0 0 0 0 0 0 0 0 0 0 0 0 0 0 127 0" result="hardAlpha"/>
<feOffset dy="4"/>
<feGaussianBlur stdDeviation="2"/>
<feComposite in2="hardAlpha" operator="out"/>
<feColorMatrix type="matrix" values="0 0 0 0 0 0 0 0 0 0 0 0 0 0 0 0 0 0 0.25 0"/>
<feBlend mode="normal" in2="effect5_dropShadow" result="effect6_dropShadow"/>
<feBlend mode="normal" in="SourceGraphic" in2="effect6_dropShadow" result="shape"/>
<feColorMatrix in="SourceAlpha" type="matrix" values="0 0 0 0 0 0 0 0 0 0 0 0 0 0 0 0 0 0 127 0" result="hardAlpha"/>
<feOffset dy="4"/>
<feGaussianBlur stdDeviation="2"/>
<feComposite in2="hardAlpha" operator="arithmetic" k2="-1" k3="1"/>
<feColorMatrix type="matrix" values="0 0 0 0 0 0 0 0 0 0 0 0 0 0 0 0 0 0 0.25 0"/>
<feBlend mode="normal" in2="shape" result="effect7_innerShadow"/>
<feGaussianBlur stdDeviation="2" result="effect8_foregroundBlur"/>
</filter>
<filter id="filter2_bdddddif" x="59.5192" y="48.9591" width="383.801" height="306.256" filterUnits="userSpaceOnUse" color-interpolation-filters="sRGB">
<feFlood flood-opacity="0" result="BackgroundImageFix"/>
<feGaussianBlur in="BackgroundImage" stdDeviation="2"/>
<feComposite in2="SourceAlpha" operator="in" result="effect1_backgroundBlur"/>
<feColorMatrix in="SourceAlpha" type="matrix" values="0 0 0 0 0 0 0 0 0 0 0 0 0 0 0 0 0 0 127 0" result="hardAlpha"/>
<feOffset dy="4"/>
<feGaussianBlur stdDeviation="2"/>
<feComposite in2="hardAlpha" operator="out"/>
<feColorMatrix type="matrix" values="0 0 0 0 0 0 0 0 0 0 0 0 0 0 0 0 0 0 0.25 0"/>
<feBlend mode="normal" in2="effect1_backgroundBlur" result="effect2_dropShadow"/>
<feColorMatrix in="SourceAlpha" type="matrix" values="0 0 0 0 0 0 0 0 0 0 0 0 0 0 0 0 0 0 127 0" result="hardAlpha"/>
<feOffset dy="4"/>
<feGaussianBlur stdDeviation="2"/>
<feComposite in2="hardAlpha" operator="out"/>
<feColorMatrix type="matrix" values="0 0 0 0 0 0 0 0 0 0 0 0 0 0 0 0 0 0 0.25 0"/>
<feBlend mode="normal" in2="effect2_dropShadow" result="effect3_dropShadow"/>
<feColorMatrix in="SourceAlpha" type="matrix" values="0 0 0 0 0 0 0 0 0 0 0 0 0 0 0 0 0 0 127 0" result="hardAlpha"/>
<feOffset dy="4"/>
<feGaussianBlur stdDeviation="2"/>
<feComposite in2="hardAlpha" operator="out"/>
<feColorMatrix type="matrix" values="0 0 0 0 0 0 0 0 0 0 0 0 0 0 0 0 0 0 0.25 0"/>
<feBlend mode="normal" in2="effect3_dropShadow" result="effect4_dropShadow"/>
<feColorMatrix in="SourceAlpha" type="matrix" values="0 0 0 0 0 0 0 0 0 0 0 0 0 0 0 0 0 0 127 0" result="hardAlpha"/>
<feOffset dy="4"/>
<feGaussianBlur stdDeviation="2"/>
<feComposite in2="hardAlpha" operator="out"/>
<feColorMatrix type="matrix" values="0 0 0 0 0 0 0 0 0 0 0 0 0 0 0 0 0 0 0.25 0"/>
<feBlend mode="normal" in2="effect4_dropShadow" result="effect5_dropShadow"/>
<feColorMatrix in="SourceAlpha" type="matrix" values="0 0 0 0 0 0 0 0 0 0 0 0 0 0 0 0 0 0 127 0" result="hardAlpha"/>
<feOffset dy="4"/>
<feGaussianBlur stdDeviation="2"/>
<feComposite in2="hardAlpha" operator="out"/>
<feColorMatrix type="matrix" values="0 0 0 0 0 0 0 0 0 0 0 0 0 0 0 0 0 0 0.25 0"/>
<feBlend mode="normal" in2="effect5_dropShadow" result="effect6_dropShadow"/>
<feBlend mode="normal" in="SourceGraphic" in2="effect6_dropShadow" result="shape"/>
<feColorMatrix in="SourceAlpha" type="matrix" values="0 0 0 0 0 0 0 0 0 0 0 0 0 0 0 0 0 0 127 0" result="hardAlpha"/>
<feOffset dy="4"/>
<feGaussianBlur stdDeviation="2"/>
<feComposite in2="hardAlpha" operator="arithmetic" k2="-1" k3="1"/>
<feColorMatrix type="matrix" values="0 0 0 0 0 0 0 0 0 0 0 0 0 0 0 0 0 0 0.25 0"/>
<feBlend mode="normal" in2="shape" result="effect7_innerShadow"/>
<feGaussianBlur stdDeviation="2" result="effect8_foregroundBlur"/>
</filter>
</defs>
</svg>
