<svg width="1301" height="379" viewBox="0 0 1301 379" fill="none" xmlns="http://www.w3.org/2000/svg">
<path d="M0 11C0 4.92487 4.92487 0 11 0H1289.59C1295.67 0 1300.59 4.92487 1300.59 11V367.297C1300.59 373.372 1295.67 378.297 1289.59 378.297H11C4.9249 378.297 0 373.372 0 367.297V11Z" fill="#6415FF"/>
<path d="M527.719 210.703H450.656L456.281 177.938H533.484L527.719 210.703ZM638.391 207.047H604.922L591.844 282H550.641L586.219 77.25L654 77.3906C676.688 77.3906 694.125 82.7344 706.312 93.4219C718.594 104.109 724.031 118.969 722.625 138C720.656 166.125 705.656 185.672 677.625 196.641L706.453 279.75V282H662.578L638.391 207.047ZM610.828 172.875L641.484 173.156C652.359 172.969 661.312 170.062 668.344 164.438C675.469 158.719 679.734 150.984 681.141 141.234C682.453 132.141 681 125.016 676.781 119.859C672.562 114.703 665.859 111.938 656.672 111.562L621.516 111.422L610.828 172.875ZM800.109 284.812C786.797 284.719 774.984 281.484 764.672 275.109C754.453 268.641 746.812 259.828 741.75 248.672C736.688 237.422 734.719 225.047 735.844 211.547L736.266 205.922C737.672 191.109 741.984 177.516 749.203 165.141C756.422 152.766 765.703 143.25 777.047 136.594C788.391 129.844 800.953 126.656 814.734 127.031C834.328 127.406 849.141 134.625 859.172 148.688C869.297 162.656 873.141 180.375 870.703 201.844L868.453 219.141H775.219C774.844 228.984 777.234 236.859 782.391 242.766C787.547 248.672 794.578 251.719 803.484 251.906C817.922 252.281 830.578 246.703 841.453 235.172L859.594 257.672C853.875 266.297 845.625 273.047 834.844 277.922C824.062 282.703 812.484 285 800.109 284.812ZM812.766 159.797C805.453 159.609 798.938 161.906 793.219 166.688C787.594 171.469 782.531 179.766 778.031 191.578H832.594L833.438 187.922C834 184.172 834.047 180.609 833.578 177.234C832.641 171.797 830.344 167.578 826.688 164.578C823.031 161.484 818.391 159.891 812.766 159.797ZM1026.38 206.344C1024.41 222.281 1020.23 236.438 1013.86 248.812C1007.48 261.188 999.562 270.375 990.094 276.375C980.625 282.375 970.125 285.234 958.594 284.953C943.875 284.578 932.25 279.094 923.719 268.5L909.797 340.5H870.141L906.562 129.844L943.125 129.703L940.453 145.031C951.422 132.656 964.359 126.656 979.266 127.031C994.172 127.406 1005.75 132.844 1014 143.344C1022.25 153.75 1026.66 167.906 1027.22 185.812C1027.41 191.625 1027.12 198.469 1026.38 206.344ZM987 203.391L987.844 189.891C988.031 180.797 986.344 173.578 982.781 168.234C979.312 162.891 974.203 160.125 967.453 159.938C955.922 159.562 946.406 164.438 938.906 174.562L927.516 237.281C930.984 246.75 938.438 251.672 949.875 252.047C959.438 252.328 967.406 248.625 973.781 240.938C980.156 233.25 984.562 220.734 987 203.391ZM1125.94 127.031C1139.34 127.219 1150.88 130.688 1160.53 137.438C1170.28 144.094 1177.41 153.328 1181.91 165.141C1186.5 176.859 1188.14 189.891 1186.83 204.234C1184.67 228.422 1176.23 248.016 1161.52 263.016C1146.89 277.922 1128.8 285.188 1107.23 284.812C1094.02 284.625 1082.58 281.25 1072.92 274.688C1063.27 268.031 1056.14 258.844 1051.55 247.125C1046.95 235.406 1045.31 222.469 1046.62 208.312C1049.06 183.188 1057.59 163.219 1072.22 148.406C1086.84 133.594 1104.75 126.469 1125.94 127.031ZM1085.86 222.797C1086.05 231.797 1088.16 238.922 1092.19 244.172C1096.22 249.328 1101.89 252 1109.2 252.188C1121.39 252.562 1130.95 246.984 1137.89 235.453C1144.83 223.828 1148.06 208.594 1147.59 189.75C1147.22 180.75 1145.02 173.578 1140.98 168.234C1137.05 162.797 1131.38 159.984 1123.97 159.797C1112.16 159.422 1102.69 165 1095.56 176.531C1088.53 187.969 1085.3 203.391 1085.86 222.797Z" fill="white"/>
<path d="M527.719 210.703V211.703H528.558L528.704 210.876L527.719 210.703ZM450.656 210.703L449.671 210.534L449.47 211.703H450.656V210.703ZM456.281 177.938V176.938H455.438L455.296 177.768L456.281 177.938ZM533.484 177.938L534.469 178.111L534.676 176.938H533.484V177.938ZM527.719 209.703H450.656V211.703H527.719V209.703ZM451.642 210.872L457.267 178.107L455.296 177.768L449.671 210.534L451.642 210.872ZM456.281 178.938H533.484V176.938H456.281V178.938ZM532.5 177.764L526.734 210.53L528.704 210.876L534.469 178.111L532.5 177.764ZM638.391 207.047L639.342 206.74L639.119 206.047H638.391V207.047ZM604.922 207.047V206.047H604.081L603.937 206.875L604.922 207.047ZM591.844 282V283H592.684L592.829 282.172L591.844 282ZM550.641 282L549.655 281.829L549.452 283H550.641V282ZM586.219 77.25L586.221 76.25L585.378 76.2483L585.234 77.0788L586.219 77.25ZM654 77.3906L653.998 78.3906H654V77.3906ZM706.312 93.4219L705.653 94.1737L705.656 94.1762L706.312 93.4219ZM722.625 138L721.628 137.926L721.627 137.93L722.625 138ZM677.625 196.641L677.261 195.709L676.365 196.06L676.68 196.968L677.625 196.641ZM706.453 279.75H707.453V279.581L707.398 279.422L706.453 279.75ZM706.453 282V283H707.453V282H706.453ZM662.578 282L661.626 282.307L661.85 283H662.578V282ZM610.828 172.875L609.843 172.704L609.641 173.864L610.819 173.875L610.828 172.875ZM641.484 173.156L641.475 174.156L641.488 174.156L641.502 174.156L641.484 173.156ZM668.344 164.438L668.968 165.218L668.97 165.217L668.344 164.438ZM681.141 141.234L680.151 141.092L680.151 141.092L681.141 141.234ZM656.672 111.562L656.713 110.563L656.694 110.563L656.676 110.563L656.672 111.562ZM621.516 111.422L621.52 110.422L620.675 110.419L620.53 111.251L621.516 111.422ZM638.391 206.047H604.922V208.047H638.391V206.047ZM603.937 206.875L590.859 281.828L592.829 282.172L605.907 207.219L603.937 206.875ZM591.844 281H550.641V283H591.844V281ZM551.626 282.171L587.204 77.4212L585.234 77.0788L549.655 281.829L551.626 282.171ZM586.217 78.25L653.998 78.3906L654.002 76.3906L586.221 76.25L586.217 78.25ZM654 78.3906C676.541 78.3906 693.71 83.7001 705.653 94.1737L706.972 92.67C694.54 81.7687 676.834 76.3906 654 76.3906V78.3906ZM705.656 94.1762C717.657 104.62 723.015 119.148 721.628 137.926L723.622 138.074C725.047 118.789 719.531 103.599 706.969 92.6675L705.656 94.1762ZM721.627 137.93C720.655 151.826 716.469 163.549 709.105 173.145C701.738 182.745 691.144 190.277 677.261 195.709L677.989 197.572C692.137 192.036 703.059 184.31 710.692 174.363C718.328 164.412 722.627 152.299 723.623 138.07L721.627 137.93ZM676.68 196.968L705.508 280.078L707.398 279.422L678.57 196.313L676.68 196.968ZM705.453 279.75V282H707.453V279.75H705.453ZM706.453 281H662.578V283H706.453V281ZM663.53 281.693L639.342 206.74L637.439 207.354L661.626 282.307L663.53 281.693ZM610.819 173.875L641.475 174.156L641.494 172.156L610.837 171.875L610.819 173.875ZM641.502 174.156C652.55 173.966 661.731 171.008 668.968 165.218L667.719 163.657C660.894 169.117 652.168 171.972 641.467 172.156L641.502 174.156ZM668.97 165.217C676.309 159.327 680.691 151.356 682.13 141.377L680.151 141.092C678.778 150.612 674.629 158.111 667.718 163.658L668.97 165.217ZM682.13 141.377C683.467 132.115 682.011 124.672 677.555 119.226L676.007 120.493C679.989 125.359 681.439 132.166 680.151 141.092L682.13 141.377ZM677.555 119.226C673.095 113.774 666.073 110.945 656.713 110.563L656.631 112.562C665.646 112.93 672.03 115.632 676.007 120.493L677.555 119.226ZM656.676 110.563L621.52 110.422L621.512 112.422L656.668 112.562L656.676 110.563ZM620.53 111.251L609.843 172.704L611.813 173.046L622.501 111.593L620.53 111.251ZM800.109 284.812L800.125 283.813L800.116 283.813L800.109 284.812ZM764.672 275.109L764.137 275.954L764.146 275.96L764.672 275.109ZM741.75 248.672L740.838 249.082L740.839 249.085L741.75 248.672ZM735.844 211.547L736.84 211.63L736.841 211.622L735.844 211.547ZM736.266 205.922L735.27 205.827L735.269 205.837L735.268 205.847L736.266 205.922ZM777.047 136.594L777.553 137.456L777.558 137.453L777.047 136.594ZM814.734 127.031L814.707 128.031L814.715 128.031L814.734 127.031ZM859.172 148.688L858.358 149.268L858.362 149.274L859.172 148.688ZM870.703 201.844L871.695 201.973L871.696 201.965L871.697 201.957L870.703 201.844ZM868.453 219.141V220.141H869.331L869.445 219.27L868.453 219.141ZM775.219 219.141V218.141H774.256L774.219 219.103L775.219 219.141ZM803.484 251.906L803.51 250.907L803.505 250.906L803.484 251.906ZM841.453 235.172L842.232 234.544L841.512 233.652L840.726 234.486L841.453 235.172ZM859.594 257.672L860.427 258.224L860.832 257.614L860.372 257.044L859.594 257.672ZM834.844 277.922L835.249 278.836L835.256 278.833L834.844 277.922ZM812.766 159.797L812.74 160.797L812.749 160.797L812.766 159.797ZM793.219 166.688L792.577 165.92L792.571 165.926L793.219 166.688ZM778.031 191.578L777.097 191.222L776.58 192.578H778.031V191.578ZM832.594 191.578V192.578H833.389L833.568 191.803L832.594 191.578ZM833.438 187.922L834.412 188.147L834.421 188.109L834.426 188.07L833.438 187.922ZM833.578 177.234L834.569 177.097L834.566 177.081L834.564 177.064L833.578 177.234ZM826.688 164.578L826.042 165.342L826.047 165.346L826.053 165.351L826.688 164.578ZM800.116 283.813C786.969 283.72 775.339 280.528 765.198 274.259L764.146 275.96C774.63 282.441 786.625 285.718 800.102 285.812L800.116 283.813ZM765.207 274.264C755.155 267.901 747.644 259.24 742.661 248.259L740.839 249.085C745.981 260.416 753.751 269.38 764.137 275.954L765.207 274.264ZM742.662 248.262C737.676 237.181 735.728 224.978 736.84 211.63L734.847 211.464C733.71 225.116 735.699 237.663 740.838 249.082L742.662 248.262ZM736.841 211.622L737.263 205.997L735.268 205.847L734.847 211.472L736.841 211.622ZM737.261 206.016C738.654 191.343 742.924 177.889 750.067 165.644L748.339 164.637C741.045 177.142 736.69 190.876 735.27 205.827L737.261 206.016ZM750.067 165.644C757.207 153.404 766.37 144.018 777.553 137.456L776.541 135.731C765.036 142.482 755.637 152.127 748.339 164.637L750.067 165.644ZM777.558 137.453C788.732 130.804 801.106 127.661 814.707 128.031L814.762 126.032C800.8 125.652 788.049 128.883 776.536 135.734L777.558 137.453ZM814.715 128.031C834.041 128.401 848.537 135.501 858.358 149.268L859.986 148.107C849.744 133.749 834.615 126.412 814.754 126.031L814.715 128.031ZM858.362 149.274C868.306 162.994 872.126 180.445 869.71 201.731L871.697 201.957C874.155 180.305 870.287 162.319 859.982 148.101L858.362 149.274ZM869.711 201.715L867.461 219.012L869.445 219.27L871.695 201.973L869.711 201.715ZM868.453 218.141H775.219V220.141H868.453V218.141ZM774.219 219.103C773.837 229.133 776.273 237.279 781.637 243.423L783.144 242.108C778.195 236.44 775.85 228.836 776.218 219.179L774.219 219.103ZM781.637 243.423C787.005 249.571 794.318 252.713 803.463 252.906L803.505 250.906C794.838 250.724 788.089 247.772 783.144 242.108L781.637 243.423ZM803.458 252.906C818.21 253.289 831.132 247.574 842.181 235.858L840.726 234.486C830.024 245.833 817.634 251.273 803.51 250.907L803.458 252.906ZM840.675 235.8L858.815 258.3L860.372 257.044L842.232 234.544L840.675 235.8ZM858.76 257.119C853.16 265.566 845.067 272.202 834.432 277.011L835.256 278.833C846.183 273.892 854.59 267.028 860.427 258.224L858.76 257.119ZM834.438 277.008C823.796 281.727 812.362 283.998 800.125 283.813L800.094 285.812C812.607 286.002 824.329 283.679 835.249 278.836L834.438 277.008ZM812.791 158.797C805.23 158.603 798.479 160.986 792.577 165.92L793.86 167.455C799.396 162.826 805.676 160.615 812.74 160.797L812.791 158.797ZM792.571 165.926C786.757 170.868 781.619 179.35 777.097 191.222L778.966 191.934C783.443 180.181 788.431 172.07 793.866 167.449L792.571 165.926ZM778.031 192.578H832.594V190.578H778.031V192.578ZM833.568 191.803L834.412 188.147L832.463 187.697L831.619 191.353L833.568 191.803ZM834.426 188.07C835.002 184.236 835.052 180.577 834.569 177.097L832.588 177.372C833.042 180.642 832.998 184.108 832.449 187.774L834.426 188.07ZM834.564 177.064C833.592 171.432 831.194 166.982 827.322 163.805L826.053 165.351C829.493 168.174 831.689 172.162 832.593 177.404L834.564 177.064ZM827.333 163.815C823.471 160.547 818.596 158.894 812.782 158.797L812.749 160.797C818.185 160.887 822.591 162.422 826.042 165.342L827.333 163.815ZM1026.38 206.344L1027.37 206.466L1027.37 206.452L1027.37 206.439L1026.38 206.344ZM958.594 284.953L958.568 285.953L958.569 285.953L958.594 284.953ZM923.719 268.5L924.498 267.873L923.146 266.194L922.737 268.31L923.719 268.5ZM909.797 340.5V341.5H910.622L910.779 340.69L909.797 340.5ZM870.141 340.5L869.155 340.33L868.953 341.5H870.141V340.5ZM906.562 129.844L906.559 128.844L905.72 128.847L905.577 129.673L906.562 129.844ZM943.125 129.703L944.11 129.875L944.315 128.699L943.121 128.703L943.125 129.703ZM940.453 145.031L939.468 144.86L938.862 148.333L941.201 145.695L940.453 145.031ZM1014 143.344L1013.21 143.962L1013.22 143.965L1014 143.344ZM1027.22 185.812L1026.22 185.844L1026.22 185.845L1027.22 185.812ZM987 203.391L987.99 203.53L987.996 203.492L987.998 203.453L987 203.391ZM987.844 189.891L988.842 189.953L988.843 189.932L988.844 189.911L987.844 189.891ZM982.781 168.234L981.942 168.779L981.949 168.789L982.781 168.234ZM967.453 159.938L967.421 160.937L967.425 160.937L967.453 159.938ZM938.906 174.562L938.103 173.967L937.964 174.155L937.922 174.384L938.906 174.562ZM927.516 237.281L926.532 237.103L926.483 237.37L926.577 237.625L927.516 237.281ZM949.875 252.047L949.842 253.046L949.846 253.046L949.875 252.047ZM1025.38 206.221C1023.43 222.059 1019.28 236.099 1012.97 248.355L1014.75 249.27C1021.18 236.776 1025.39 222.503 1027.37 206.466L1025.38 206.221ZM1012.97 248.355C1006.66 260.609 998.845 269.646 989.558 275.53L990.629 277.22C1000.28 271.104 1008.31 261.766 1014.75 249.27L1012.97 248.355ZM989.558 275.53C980.262 281.421 969.958 284.23 958.618 283.953L958.569 285.953C970.292 286.239 980.988 283.329 990.629 277.22L989.558 275.53ZM958.619 283.953C944.167 283.585 932.828 278.217 924.498 267.873L922.94 269.127C931.672 279.97 943.583 285.571 958.568 285.953L958.619 283.953ZM922.737 268.31L908.815 340.31L910.779 340.69L924.701 268.69L922.737 268.31ZM909.797 339.5H870.141V341.5H909.797V339.5ZM871.126 340.67L907.548 130.014L905.577 129.673L869.155 340.33L871.126 340.67ZM906.566 130.844L943.129 130.703L943.121 128.703L906.559 128.844L906.566 130.844ZM942.14 129.531L939.468 144.86L941.438 145.203L944.11 129.875L942.14 129.531ZM941.201 145.695C951.999 133.513 964.663 127.664 979.24 128.031L979.291 126.032C964.055 125.648 950.845 131.799 939.705 144.368L941.201 145.695ZM979.24 128.031C993.888 128.399 1005.17 133.725 1013.21 143.962L1014.79 142.726C1006.33 131.962 994.456 126.413 979.291 126.032L979.24 128.031ZM1013.22 143.965C1021.29 154.153 1025.66 168.078 1026.22 185.844L1028.22 185.781C1027.65 167.734 1023.21 153.347 1014.78 142.723L1013.22 143.965ZM1026.22 185.845C1026.41 191.603 1026.13 198.402 1025.38 206.249L1027.37 206.439C1028.12 198.535 1028.41 191.647 1028.22 185.78L1026.22 185.845ZM987.998 203.453L988.842 189.953L986.846 189.828L986.002 203.328L987.998 203.453ZM988.844 189.911C989.034 180.695 987.327 173.251 983.613 167.68L981.949 168.789C985.36 173.905 987.029 180.899 986.844 189.87L988.844 189.911ZM983.62 167.69C979.96 162.051 974.536 159.134 967.481 158.938L967.425 160.937C973.87 161.116 978.665 163.73 981.942 168.779L983.62 167.69ZM967.486 158.938C955.592 158.551 945.777 163.607 938.103 173.967L939.71 175.158C947.036 165.268 956.251 160.574 967.421 160.937L967.486 158.938ZM937.922 174.384L926.532 237.103L928.5 237.46L939.89 174.741L937.922 174.384ZM926.577 237.625C928.375 242.533 931.228 246.315 935.156 248.909C939.075 251.496 943.99 252.854 949.842 253.046L949.908 251.047C944.323 250.864 939.793 249.574 936.258 247.24C932.733 244.912 930.125 241.498 928.455 236.937L926.577 237.625ZM949.846 253.046C959.731 253.337 967.989 249.488 974.551 241.576L973.011 240.299C966.823 247.762 959.144 251.319 949.904 251.047L949.846 253.046ZM974.551 241.576C981.103 233.674 985.544 220.936 987.99 203.53L986.01 203.251C983.581 220.532 979.209 232.826 973.011 240.299L974.551 241.576ZM1125.94 127.031L1125.91 128.031L1125.92 128.031L1125.94 127.031ZM1160.53 137.438L1159.96 138.257L1159.97 138.263L1160.53 137.438ZM1181.91 165.141L1180.97 165.497L1180.98 165.506L1181.91 165.141ZM1186.83 204.234L1185.83 204.143L1185.83 204.146L1186.83 204.234ZM1161.52 263.016L1160.8 262.315L1160.8 262.315L1161.52 263.016ZM1107.23 284.812L1107.25 283.813L1107.25 283.813L1107.23 284.812ZM1072.92 274.688L1072.35 275.511L1072.36 275.515L1072.92 274.688ZM1046.62 208.312L1045.63 208.216L1045.63 208.22L1046.62 208.312ZM1085.86 222.797L1086.86 222.776L1086.86 222.768L1085.86 222.797ZM1092.19 244.172L1091.39 244.781L1091.4 244.788L1092.19 244.172ZM1109.2 252.188L1109.23 251.188L1109.23 251.188L1109.2 252.188ZM1137.89 235.453L1138.75 235.969L1138.75 235.966L1137.89 235.453ZM1147.59 189.75L1148.59 189.725L1148.59 189.717L1148.59 189.708L1147.59 189.75ZM1140.98 168.234L1140.17 168.821L1140.18 168.829L1140.19 168.837L1140.98 168.234ZM1123.97 159.797L1123.94 160.796L1123.94 160.797L1123.97 159.797ZM1095.56 176.531L1094.71 176.006L1094.71 176.008L1095.56 176.531ZM1125.92 128.031C1139.16 128.216 1150.49 131.637 1159.96 138.257L1161.1 136.618C1151.26 129.738 1139.53 126.221 1125.95 126.031L1125.92 128.031ZM1159.97 138.263C1169.54 144.796 1176.54 153.861 1180.97 165.497L1182.84 164.785C1178.27 152.796 1171.03 143.391 1161.1 136.612L1159.97 138.263ZM1180.98 165.506C1185.5 177.06 1187.13 189.932 1185.83 204.143L1187.82 204.325C1189.15 189.849 1187.5 176.659 1182.84 164.776L1180.98 165.506ZM1185.83 204.146C1183.69 228.14 1175.33 247.505 1160.8 262.315L1162.23 263.716C1177.13 248.526 1185.65 228.703 1187.82 204.323L1185.83 204.146ZM1160.8 262.315C1146.38 277.018 1128.55 284.183 1107.25 283.813L1107.22 285.812C1129.04 286.192 1147.41 278.825 1162.23 263.716L1160.8 262.315ZM1107.25 283.813C1094.2 283.627 1082.96 280.299 1073.48 273.86L1072.36 275.515C1082.2 282.201 1093.83 285.623 1107.22 285.812L1107.25 283.813ZM1073.49 273.864C1064.01 267.329 1057 258.307 1052.48 246.76L1050.62 247.49C1055.28 259.38 1062.52 268.733 1072.35 275.511L1073.49 273.864ZM1052.48 246.76C1047.95 235.204 1046.32 222.426 1047.62 208.405L1045.63 208.22C1044.3 222.512 1045.96 235.608 1050.62 247.49L1052.48 246.76ZM1047.62 208.409C1050.04 183.462 1058.5 163.725 1072.93 149.109L1071.51 147.704C1056.69 162.712 1048.08 182.913 1045.63 208.216L1047.62 208.409ZM1072.93 149.109C1087.36 134.497 1104.99 127.476 1125.91 128.031L1125.96 126.032C1104.51 125.462 1086.33 132.69 1071.51 147.704L1072.93 149.109ZM1084.86 222.818C1085.05 231.955 1087.19 239.31 1091.39 244.781L1092.98 243.563C1089.12 238.533 1087.04 231.638 1086.86 222.776L1084.86 222.818ZM1091.4 244.788C1095.64 250.209 1101.61 252.993 1109.18 253.187L1109.23 251.188C1102.18 251.007 1096.8 248.447 1092.98 243.556L1091.4 244.788ZM1109.17 253.187C1121.76 253.574 1131.65 247.771 1138.75 235.969L1137.03 234.938C1130.26 246.198 1121.02 251.551 1109.23 251.188L1109.17 253.187ZM1138.75 235.966C1145.81 224.127 1149.07 208.687 1148.59 189.725L1146.59 189.775C1147.06 208.501 1143.84 223.53 1137.03 234.941L1138.75 235.966ZM1148.59 189.708C1148.21 180.574 1145.97 173.185 1141.78 167.632L1140.19 168.837C1144.06 173.971 1146.23 180.926 1146.59 189.792L1148.59 189.708ZM1141.79 167.648C1137.65 161.929 1131.67 158.992 1123.99 158.797L1123.94 160.797C1131.08 160.977 1136.44 163.664 1140.17 168.821L1141.79 167.648ZM1124 158.797C1111.77 158.409 1101.99 164.223 1094.71 176.006L1096.41 177.057C1103.38 165.777 1112.54 160.435 1123.94 160.796L1124 158.797ZM1094.71 176.008C1087.54 187.67 1084.29 203.307 1084.86 222.826L1086.86 222.768C1086.3 203.474 1089.52 188.268 1096.41 177.055L1094.71 176.008Z" fill="black"/>
<path d="M362.348 256.842L362.347 256.844C336.737 287.008 313.122 309.61 291.49 324.668C269.855 339.728 250.241 347.215 232.626 347.215C210.998 347.215 192.522 329.136 177.303 292.441C172.893 277.778 168.858 264.015 165.103 251.21C156.261 221.047 148.976 196.199 142.008 177.421C137.045 164.045 132.226 153.702 127.094 146.696C121.96 139.688 116.448 135.937 110.098 135.937C109.27 135.937 108.033 136.316 106.446 136.989C104.834 137.673 102.791 138.691 100.318 140.038C95.4415 142.693 88.8626 146.643 80.5751 151.866L63.5192 131.857C71.5682 125.451 79.5419 118.922 87.3582 112.522C100.512 101.751 113.22 91.3447 125.092 82.5042C134.608 75.4174 143.567 69.3527 151.761 64.9284C159.962 60.5006 167.359 57.7365 173.759 57.2113L173.762 57.211C188.323 55.9262 200.014 59.7975 208.918 68.7648C217.842 77.7516 224.021 91.9093 227.421 111.295C233.459 145.88 238.658 173.139 243.747 193.59C248.831 214.017 253.822 227.734 259.483 235.167C262.323 238.895 265.37 241.095 268.731 241.722C272.091 242.349 275.661 241.383 279.502 238.999C287.156 234.247 296.113 223.721 307.091 208.065L307.091 208.064C314.968 196.771 321.042 186.822 325.296 178.207C329.547 169.601 331.994 162.3 332.593 156.308C333.611 147.488 332.229 140.949 329.149 136.264C326.065 131.575 321.326 128.814 315.772 127.463C305.011 124.846 291.072 127.49 279.642 131.78C288.865 104.878 302.188 84.9018 319.574 71.7937C337.171 58.5262 358.976 52.2612 385.014 53.0207L385.017 53.0208C404.191 53.4758 418.23 59.3664 427.22 70.583C436.222 81.8144 440.236 98.4778 439.145 120.635C438.309 137.142 431.532 156.747 418.738 179.465C405.947 202.178 387.161 227.97 362.348 256.842Z" fill="white" stroke="black"/>
</svg>
