<svg width="1301" height="379" viewBox="0 0 1301 379" fill="none" xmlns="http://www.w3.org/2000/svg">
<g filter="url(#filter0_d)">
<g filter="url(#filter1_d)">
<path d="M527.719 210.703H450.656L456.281 177.938H533.484L527.719 210.703ZM638.391 207.047H604.922L591.844 282H550.641L586.219 77.25L654 77.3906C676.688 77.3906 694.125 82.7344 706.312 93.4219C718.594 104.109 724.031 118.969 722.625 138C720.656 166.125 705.656 185.672 677.625 196.641L706.453 279.75V282H662.578L638.391 207.047ZM610.828 172.875L641.484 173.156C652.359 172.969 661.312 170.062 668.344 164.438C675.469 158.719 679.734 150.984 681.141 141.234C682.453 132.141 681 125.016 676.781 119.859C672.562 114.703 665.859 111.938 656.672 111.562L621.516 111.422L610.828 172.875ZM800.109 284.812C786.797 284.719 774.984 281.484 764.672 275.109C754.453 268.641 746.812 259.828 741.75 248.672C736.688 237.422 734.719 225.047 735.844 211.547L736.266 205.922C737.672 191.109 741.984 177.516 749.203 165.141C756.422 152.766 765.703 143.25 777.047 136.594C788.391 129.844 800.953 126.656 814.734 127.031C834.328 127.406 849.141 134.625 859.172 148.688C869.297 162.656 873.141 180.375 870.703 201.844L868.453 219.141H775.219C774.844 228.984 777.234 236.859 782.391 242.766C787.547 248.672 794.578 251.719 803.484 251.906C817.922 252.281 830.578 246.703 841.453 235.172L859.594 257.672C853.875 266.297 845.625 273.047 834.844 277.922C824.062 282.703 812.484 285 800.109 284.812ZM812.766 159.797C805.453 159.609 798.938 161.906 793.219 166.688C787.594 171.469 782.531 179.766 778.031 191.578H832.594L833.438 187.922C834 184.172 834.047 180.609 833.578 177.234C832.641 171.797 830.344 167.578 826.688 164.578C823.031 161.484 818.391 159.891 812.766 159.797ZM1026.38 206.344C1024.41 222.281 1020.23 236.438 1013.86 248.812C1007.48 261.188 999.562 270.375 990.094 276.375C980.625 282.375 970.125 285.234 958.594 284.953C943.875 284.578 932.25 279.094 923.719 268.5L909.797 340.5H870.141L906.562 129.844L943.125 129.703L940.453 145.031C951.422 132.656 964.359 126.656 979.266 127.031C994.172 127.406 1005.75 132.844 1014 143.344C1022.25 153.75 1026.66 167.906 1027.22 185.812C1027.41 191.625 1027.12 198.469 1026.38 206.344ZM987 203.391L987.844 189.891C988.031 180.797 986.344 173.578 982.781 168.234C979.312 162.891 974.203 160.125 967.453 159.938C955.922 159.562 946.406 164.438 938.906 174.562L927.516 237.281C930.984 246.75 938.438 251.672 949.875 252.047C959.438 252.328 967.406 248.625 973.781 240.938C980.156 233.25 984.562 220.734 987 203.391ZM1125.94 127.031C1139.34 127.219 1150.88 130.688 1160.53 137.438C1170.28 144.094 1177.41 153.328 1181.91 165.141C1186.5 176.859 1188.14 189.891 1186.83 204.234C1184.67 228.422 1176.23 248.016 1161.52 263.016C1146.89 277.922 1128.8 285.188 1107.23 284.812C1094.02 284.625 1082.58 281.25 1072.92 274.688C1063.27 268.031 1056.14 258.844 1051.55 247.125C1046.95 235.406 1045.31 222.469 1046.62 208.312C1049.06 183.188 1057.59 163.219 1072.22 148.406C1086.84 133.594 1104.75 126.469 1125.94 127.031ZM1085.86 222.797C1086.05 231.797 1088.16 238.922 1092.19 244.172C1096.22 249.328 1101.89 252 1109.2 252.188C1121.39 252.562 1130.95 246.984 1137.89 235.453C1144.83 223.828 1148.06 208.594 1147.59 189.75C1147.22 180.75 1145.02 173.578 1140.98 168.234C1137.05 162.797 1131.38 159.984 1123.97 159.797C1112.16 159.422 1102.69 165 1095.56 176.531C1088.53 187.969 1085.3 203.391 1085.86 222.797Z" fill="#6415FF"/>
<path d="M800.112 284.312L800.117 284.312C812.422 284.499 823.927 282.215 834.639 277.466C845.219 272.682 853.323 266.09 858.974 257.7L841.422 235.93C830.549 247.272 817.892 252.78 803.473 252.406C803.472 252.406 803.472 252.406 803.471 252.406L803.484 251.906L800.112 284.312ZM800.112 284.312C786.884 284.22 775.163 281.006 764.937 274.685C754.803 268.27 747.227 259.533 742.205 248.465C737.182 237.3 735.224 225.012 736.342 211.589L736.343 211.584M800.112 284.312L736.343 211.584M736.343 211.584L736.764 205.969C736.764 205.968 736.764 205.966 736.764 205.965C738.164 191.223 742.455 177.702 749.635 165.393C756.815 153.085 766.037 143.634 777.3 137.025L777.303 137.024M736.343 211.584L777.303 137.024M777.303 137.024C788.562 130.324 801.03 127.158 814.72 127.531L814.724 127.531M777.303 137.024L814.724 127.531M814.724 127.531C834.185 127.903 848.839 135.063 858.765 148.978L858.767 148.981M814.724 127.531L858.767 148.981M858.767 148.981C868.801 162.824 872.633 180.408 870.207 201.783M858.767 148.981L870.207 201.783M1091.8 244.48L1091.79 244.476C1087.68 239.117 1085.55 231.878 1085.36 222.811C1085.36 222.81 1085.36 222.809 1085.36 222.808L1085.86 222.797L1091.8 244.48ZM1091.8 244.48C1095.93 249.768 1101.75 252.496 1109.18 252.688C1121.58 253.068 1131.3 247.377 1138.32 235.711L1138.32 235.709M1091.8 244.48L1138.32 235.709M1138.32 235.709C1145.32 223.977 1148.56 208.64 1148.09 189.738L1148.09 189.729M1138.32 235.709L1148.09 189.729M1148.09 189.729C1147.72 180.664 1145.5 173.385 1141.38 167.936M1148.09 189.729L1141.38 167.936M870.207 201.783C870.207 201.785 870.206 201.786 870.206 201.788M870.207 201.783L870.206 201.788M870.206 201.788L868.014 218.641L870.206 201.788ZM1141.38 167.936C1137.35 162.362 1131.53 159.488 1123.98 159.297L1141.38 167.936ZM638.867 206.893L638.755 206.547H638.391H604.922H604.502L604.429 206.961L591.424 281.5H551.235L586.639 77.7509L653.999 77.8906H654C676.615 77.8906 693.917 83.2172 705.982 93.7978L705.984 93.7991C718.125 104.364 723.523 119.059 722.126 137.963L722.126 137.965C721.148 151.944 716.934 163.765 709.502 173.45C702.068 183.136 691.392 190.717 677.443 196.175L676.995 196.351L677.153 196.805L705.953 279.834V281.5H662.942L638.867 206.893ZM610.335 172.789L610.234 173.37L610.823 173.375L641.479 173.656L641.493 173.656C652.455 173.467 661.521 170.535 668.656 164.828L668.657 164.828C675.889 159.023 680.212 151.17 681.636 141.305C682.96 132.128 681.505 124.844 677.168 119.542L676.781 119.859L677.168 119.542C672.828 114.239 665.966 111.442 656.692 111.062L656.683 111.062L656.674 111.062L621.518 110.922L621.096 110.92L621.023 111.336L610.335 172.789ZM792.898 166.304L792.895 166.307C787.175 171.169 782.075 179.558 777.564 191.4L777.305 192.078H778.031H832.594H832.992L833.081 191.69L833.925 188.034L833.93 188.015L833.932 187.996C834.501 184.204 834.55 180.593 834.073 177.165L834.072 177.157L834.071 177.149C833.117 171.616 830.77 167.282 827.008 164.194C823.249 161.014 818.493 159.393 812.776 159.297C805.34 159.107 798.708 161.447 792.898 166.304ZM942.53 130.205L939.96 144.945L939.658 146.682L940.827 145.363C951.71 133.084 964.511 127.16 979.253 127.531C994.03 127.903 1005.46 133.285 1013.61 143.653L1013.61 143.655C1021.77 153.951 1026.16 167.992 1026.72 185.828C1026.91 191.612 1026.62 198.431 1025.88 206.29C1023.92 222.174 1019.75 236.271 1013.42 248.583C1007.07 260.899 999.203 270.011 989.826 275.953C980.443 281.898 970.041 284.732 958.606 284.453C944.021 284.081 932.539 278.656 924.108 268.186L923.433 267.347L923.228 268.405L909.384 340H870.735L906.983 130.342L942.53 130.205ZM987.495 203.461L987.498 203.441L987.499 203.422L988.343 189.922L988.344 189.912L988.344 189.901C988.532 180.748 986.837 173.417 983.199 167.96C979.634 162.471 974.369 159.63 967.468 159.438C955.756 159.057 946.091 164.023 938.504 174.264L938.435 174.358L938.414 174.473L927.024 237.192L927 237.325L927.046 237.453C928.812 242.274 931.604 245.964 935.432 248.491C939.254 251.016 944.073 252.357 949.859 252.547L949.86 252.547C959.585 252.833 967.698 249.057 974.166 241.257C980.63 233.462 985.053 220.835 987.495 203.461ZM1125.93 127.531L1125.93 127.531C1139.25 127.718 1150.69 131.163 1160.24 137.848L1160.25 137.851C1169.91 144.445 1176.98 153.594 1181.44 165.319L1181.44 165.323C1186 176.959 1187.64 189.912 1186.33 204.189L1186.33 204.19C1184.18 228.281 1175.78 247.761 1161.16 262.666C1146.63 277.47 1128.68 284.686 1107.24 284.312L1107.24 284.312C1094.11 284.126 1082.77 280.775 1073.2 274.276C1063.64 267.68 1056.57 258.576 1052.02 246.943L1051.55 247.125L1052.02 246.942C1047.45 235.306 1045.81 222.449 1047.12 208.36C1049.55 183.325 1058.04 163.472 1072.58 148.757C1087.1 134.046 1104.87 126.972 1125.93 127.531ZM532.888 178.438L527.299 210.203H451.249L456.702 178.438H532.888Z" stroke="white"/>
</g>
<g filter="url(#filter2_d)">
<path d="M362.348 256.842L362.347 256.844C336.737 287.008 313.122 309.61 291.49 324.668C269.855 339.728 250.241 347.215 232.626 347.215C210.998 347.215 192.522 329.136 177.303 292.441C172.893 277.778 168.858 264.015 165.103 251.21C156.261 221.047 148.976 196.199 142.008 177.421C137.045 164.045 132.226 153.702 127.094 146.696C121.96 139.688 116.448 135.937 110.098 135.937C109.27 135.937 108.033 136.316 106.446 136.989C104.834 137.673 102.791 138.691 100.318 140.038C95.4415 142.693 88.8626 146.643 80.5751 151.866L63.5192 131.857C71.5682 125.451 79.5419 118.922 87.3582 112.522C100.512 101.751 113.22 91.3447 125.092 82.5042C134.608 75.4174 143.567 69.3527 151.761 64.9284C159.962 60.5006 167.359 57.7365 173.759 57.2113L173.762 57.211C188.323 55.9262 200.014 59.7975 208.918 68.7648C217.842 77.7516 224.021 91.9093 227.421 111.295C233.459 145.88 238.658 173.139 243.747 193.59C248.831 214.017 253.822 227.734 259.483 235.167C262.323 238.895 265.37 241.095 268.731 241.722C272.091 242.349 275.661 241.383 279.502 238.999C287.156 234.247 296.113 223.721 307.091 208.065V208.064C314.968 196.771 321.042 186.822 325.296 178.207C329.547 169.601 331.994 162.3 332.593 156.308C333.611 147.488 332.229 140.949 329.149 136.264C326.065 131.575 321.326 128.814 315.772 127.463C305.011 124.846 291.072 127.49 279.642 131.78C288.865 104.878 302.188 84.9018 319.574 71.7937C337.171 58.5262 358.976 52.2612 385.014 53.0207L385.017 53.0208C404.191 53.4758 418.23 59.3664 427.22 70.583C436.222 81.8144 440.236 98.4778 439.145 120.635C438.309 137.142 431.532 156.747 418.738 179.465C405.947 202.178 387.161 227.97 362.348 256.842Z" fill="#6415FF"/>
<path d="M362.348 256.842L362.347 256.844C336.737 287.008 313.122 309.61 291.49 324.668C269.855 339.728 250.241 347.215 232.626 347.215C210.998 347.215 192.522 329.136 177.303 292.441C172.893 277.778 168.858 264.015 165.103 251.21C156.261 221.047 148.976 196.199 142.008 177.421C137.045 164.045 132.226 153.702 127.094 146.696C121.96 139.688 116.448 135.937 110.098 135.937C109.27 135.937 108.033 136.316 106.446 136.989C104.834 137.673 102.791 138.691 100.318 140.038C95.4415 142.693 88.8626 146.643 80.5751 151.866L63.5192 131.857C71.5682 125.451 79.5419 118.922 87.3582 112.522C100.512 101.751 113.22 91.3447 125.092 82.5042C134.608 75.4174 143.567 69.3527 151.761 64.9284C159.962 60.5006 167.359 57.7365 173.759 57.2113L173.762 57.211C188.323 55.9262 200.014 59.7975 208.918 68.7648C217.842 77.7516 224.021 91.9093 227.421 111.295C233.459 145.88 238.658 173.139 243.747 193.59C248.831 214.017 253.822 227.734 259.483 235.167C262.323 238.895 265.37 241.095 268.731 241.722C272.091 242.349 275.661 241.383 279.502 238.999C287.156 234.247 296.113 223.721 307.091 208.065V208.064C314.968 196.771 321.042 186.822 325.296 178.207C329.547 169.601 331.994 162.3 332.593 156.308C333.611 147.488 332.229 140.949 329.149 136.264C326.065 131.575 321.326 128.814 315.772 127.463C305.011 124.846 291.072 127.49 279.642 131.78C288.865 104.878 302.188 84.9018 319.574 71.7937C337.171 58.5262 358.976 52.2612 385.014 53.0207L385.017 53.0208C404.191 53.4758 418.23 59.3664 427.22 70.583C436.222 81.8144 440.236 98.4778 439.145 120.635C438.309 137.142 431.532 156.747 418.738 179.465C405.947 202.178 387.161 227.97 362.348 256.842Z" stroke="white"/>
</g>
</g>
<defs>
<filter id="filter0_d" x="-4" y="0" width="1309" height="387" filterUnits="userSpaceOnUse" color-interpolation-filters="sRGB">
<feFlood flood-opacity="0" result="BackgroundImageFix"/>
<feColorMatrix in="SourceAlpha" type="matrix" values="0 0 0 0 0 0 0 0 0 0 0 0 0 0 0 0 0 0 127 0" result="hardAlpha"/>
<feOffset dy="4"/>
<feGaussianBlur stdDeviation="2"/>
<feComposite in2="hardAlpha" operator="out"/>
<feColorMatrix type="matrix" values="0 0 0 0 0 0 0 0 0 0 0 0 0 0 0 0 0 0 0.25 0"/>
<feBlend mode="normal" in2="BackgroundImageFix" result="effect1_dropShadow"/>
<feBlend mode="normal" in="SourceGraphic" in2="effect1_dropShadow" result="shape"/>
</filter>
<filter id="filter1_d" x="446.656" y="77.25" width="744.61" height="271.25" filterUnits="userSpaceOnUse" color-interpolation-filters="sRGB">
<feFlood flood-opacity="0" result="BackgroundImageFix"/>
<feColorMatrix in="SourceAlpha" type="matrix" values="0 0 0 0 0 0 0 0 0 0 0 0 0 0 0 0 0 0 127 0" result="hardAlpha"/>
<feOffset dy="4"/>
<feGaussianBlur stdDeviation="2"/>
<feComposite in2="hardAlpha" operator="out"/>
<feColorMatrix type="matrix" values="0 0 0 0 0 0 0 0 0 0 0 0 0 0 0 0 0 0 0.25 0"/>
<feBlend mode="normal" in2="BackgroundImageFix" result="effect1_dropShadow"/>
<feBlend mode="normal" in="SourceGraphic" in2="effect1_dropShadow" result="shape"/>
</filter>
<filter id="filter2_d" x="58.8032" y="52.4591" width="385.017" height="303.256" filterUnits="userSpaceOnUse" color-interpolation-filters="sRGB">
<feFlood flood-opacity="0" result="BackgroundImageFix"/>
<feColorMatrix in="SourceAlpha" type="matrix" values="0 0 0 0 0 0 0 0 0 0 0 0 0 0 0 0 0 0 127 0" result="hardAlpha"/>
<feOffset dy="4"/>
<feGaussianBlur stdDeviation="2"/>
<feComposite in2="hardAlpha" operator="out"/>
<feColorMatrix type="matrix" values="0 0 0 0 0 0 0 0 0 0 0 0 0 0 0 0 0 0 0.25 0"/>
<feBlend mode="normal" in2="BackgroundImageFix" result="effect1_dropShadow"/>
<feBlend mode="normal" in="SourceGraphic" in2="effect1_dropShadow" result="shape"/>
</filter>
</defs>
</svg>
